<?xml version="1.0" standalone="no"?>
<!DOCTYPE svg PUBLIC "-//W3C//DTD SVG 1.1//EN" "http://www.w3.org/Graphics/SVG/1.1/DTD/svg11.dtd" >
<svg xmlns="http://www.w3.org/2000/svg" xmlns:xlink="http://www.w3.org/1999/xlink" version="1.1">
<metadata></metadata>
<defs>
<font id="morebi_roundedmedium" horiz-adv-x="1264" >
<font-face units-per-em="2048" ascent="1583" descent="-465" />
<missing-glyph horiz-adv-x="527" />
<glyph unicode="&#xfb01;" horiz-adv-x="1268" d="M169 72v983q0 126 23 219t99 165q129 116 337 115q72 0 152.5 -11t133.5 -33q56 -24 56 -79q0 -17 -6 -36q-21 -55 -84 -56q-21 0 -43 7q-40 11 -87.5 22t-127.5 11q-65 0 -114 -17.5t-77 -47.5q-32 -30 -48 -76t-20 -129h601q68 0 103.5 -40t35.5 -91v-906 q0 -36 -28.5 -58t-68.5 -22t-68.5 22t-28.5 58v862h-546v-862q0 -36 -28.5 -58t-68.5 -22t-68.5 22t-28.5 58z" />
<glyph unicode="&#xfb02;" horiz-adv-x="1324" d="M169 72v983q0 126 23 219t99 165q129 116 337 115q85 0 172.5 -8t189.5 -32q61 -14 90 -56.5t29 -96.5v-994q0 -45 5.5 -75t18 -54.5t33 -46t49.5 -42.5q36 -25 35 -65q0 -27 -20 -54q-28 -38 -72 -38q-17 0 -32 5t-29 13q-99 70 -140 151.5t-41 205.5v983 q-53 11 -130 21t-164 10q-65 0 -114 -18.5t-77 -48.5q-32 -30 -48 -76t-20 -129h352q40 0 64 -26t24 -62t-24 -61.5t-64 -25.5h-352v-862q0 -36 -28.5 -58t-68.5 -22t-68.5 22t-28.5 58z" />
<glyph unicode="&#xfb03;" horiz-adv-x="2009" d="M169 72v983q0 126 23 219t99 165q129 116 339 115q61 0 112 -7t95 -24q57 -25 57 -80q0 -19 -6 -38q-21 -55 -83 -55q-23 0 -44 7q-82 23 -147 22q-61 0 -108 -17.5t-75 -47.5q-32 -30 -48 -76t-20 -129h546q5 105 30 185.5t92 144.5q63 57 147 86t191 29q72 0 152 -11 t133 -33q57 -24 57 -79q0 -17 -6 -36q-21 -55 -87 -56q-18 0 -40 7q-40 11 -87.5 22t-127.5 11q-68 0 -115.5 -17.5t-76.5 -47.5q-32 -30 -48 -76t-20 -129h602q68 0 103.5 -40t35.5 -91v-906q0 -36 -28.5 -58t-68.5 -22q-42 0 -69.5 22t-27.5 58v862h-547v-862 q0 -36 -28.5 -58t-68.5 -22t-68.5 22t-28.5 58v862h-546v-862q0 -36 -28.5 -58t-68.5 -22t-68.5 22t-28.5 58z" />
<glyph unicode="&#xfb04;" horiz-adv-x="2064" d="M169 72v983q0 126 23 219t99 165q129 116 339 115q61 0 112 -7t95 -24q57 -25 57 -80q0 -19 -6 -38q-21 -55 -83 -55q-23 0 -44 7q-82 23 -147 22q-61 0 -108 -17.5t-75 -47.5q-32 -30 -48 -76t-20 -129h546q5 105 30 185.5t92 144.5q63 57 147 86t191 29q84 0 171.5 -8 t188.5 -32q61 -14 91 -56.5t30 -96.5v-994q0 -45 5 -75t18 -54.5t32.5 -46t49.5 -42.5q36 -25 36 -65q0 -27 -21 -54q-27 -38 -72 -38q-16 0 -31 5t-29 13q-99 70 -140.5 151.5t-41.5 205.5v983q-52 11 -129.5 21t-163.5 10q-68 0 -115.5 -18.5t-76.5 -48.5q-32 -30 -48 -76 t-20 -129h352q41 0 65 -26t24 -62t-24 -61.5t-65 -25.5h-352v-862q0 -36 -28.5 -58t-68.5 -22t-68.5 22t-28.5 58v862h-546v-862q0 -36 -28.5 -58t-68.5 -22t-68.5 22t-28.5 58z" />
<glyph horiz-adv-x="0" />
<glyph unicode="&#xd;" horiz-adv-x="0" />
<glyph horiz-adv-x="252" />
<glyph horiz-adv-x="252" />
<glyph unicode=" "  horiz-adv-x="527" />
<glyph unicode="&#x09;" horiz-adv-x="527" />
<glyph unicode="&#xa0;" horiz-adv-x="527" />
<glyph unicode="!" horiz-adv-x="535" d="M169 70v51q0 42 30.5 63t68.5 21t68.5 -21t30.5 -63v-51q0 -42 -30.5 -63t-68.5 -21t-68.5 21t-30.5 63zM169 451v960q0 42 30.5 63.5t68.5 21.5t68.5 -21.5t30.5 -63.5v-960q0 -38 -31.5 -61t-67.5 -23t-67.5 23t-31.5 61z" />
<glyph unicode="&#x22;" horiz-adv-x="527" d="M63 1103v378q0 30 22 51.5t52 21.5t52 -22t22 -51v-378q0 -30 -22 -52t-52 -22t-52 22t-22 52zM316 1103v378q0 30 21 51.5t53 21.5q30 0 52.5 -22t22.5 -51v-378q0 -30 -22.5 -52t-52.5 -22q-32 0 -53 22t-21 52z" />
<glyph unicode="#" horiz-adv-x="1278" d="M63 449q0 36 24.5 62.5t63.5 26.5h143l77 404h-103q-42 0 -65.5 27t-23.5 62q0 36 23.5 62.5t65.5 26.5h139l58 295q12 72 96 72q43 0 70 -21t27 -61q0 -12 -2 -22l-52 -263h219l59 295q12 72 94 72q43 0 70 -21t27 -61q0 -12 -2 -22l-50 -263h106q40 0 64 -26.5 t24 -62.5t-24 -62.5t-64 -26.5h-142l-80 -404h105q41 0 65 -26.5t24 -62.5q0 -38 -24 -63.5t-65 -25.5h-139l-59 -295q-7 -34 -31 -53.5t-64 -19.5q-42 0 -69.5 22t-27.5 62q0 13 2 21l51 263h-220l-56 -295q-7 -34 -31 -53.5t-64 -19.5q-42 0 -70.5 22t-28.5 62q0 4 4 21 l51 263h-107q-40 0 -64 25.5t-24 63.5zM489 538h220l80 404h-219z" />
<glyph unicode="$" horiz-adv-x="1182" d="M127 207q0 8 4 25q6 28 28 45t56 17q19 0 38 -7q41 -10 73 -18.5t63 -15t63.5 -10t70.5 -5.5v448q-175 44 -268 122q-122 96 -122 249q0 61 21 121t66.5 109.5t120 84.5t182.5 43v81q0 27 19 42.5t44 15.5q28 0 46 -15.5t18 -42.5v-79q143 -6 270 -46q34 -10 49.5 -32.5 t15.5 -49.5q0 -9 -1 -15t-3 -14q-11 -32 -34 -47t-53 -15q-18 0 -38 6q-68 19 -117 26.5t-89 9.5v-403q48 -10 117.5 -33t134 -66.5t110 -111t45.5 -167.5q0 -84 -35 -157.5t-100 -128.5q-107 -89 -272 -108v-79q0 -28 -18 -44t-46 -16q-26 0 -44.5 16t-18.5 44v75 q-120 4 -195 22t-138 38q-30 10 -46.5 33t-16.5 53zM327 1057q0 -15 3.5 -37t21 -47t57.5 -52t114 -50v367q-196 -23 -196 -181zM650 245q101 17 157 71.5t56 142.5q0 26 -7.5 52.5t-30 50.5t-64.5 47t-111 45v-409z" />
<glyph unicode="%" horiz-adv-x="1731" d="M137 1131q0 38 2 71.5t8 69.5q6 42 27.5 82.5t58.5 71.5t91 50.5t123 19.5q70 0 123.5 -19.5t90.5 -50.5t58.5 -71.5t27.5 -82.5q4 -36 7 -69.5t3 -71.5q0 -36 -3 -71t-7 -68q-6 -42 -27.5 -82.5t-58.5 -72.5t-90.5 -52t-123.5 -20t-123.5 20t-90.5 52t-58 72.5t-28 82.5 q-6 34 -8 68.5t-2 70.5zM296 1131q0 -34 2 -64.5t6 -60.5q2 -12 8 -30t22 -35t42.5 -29t70.5 -12t70.5 12t42.5 29t22 35t8 30q4 30 6.5 60.5t2.5 64.5t-2 64.5t-7 62.5q-2 10 -8 28t-22 34.5t-42.5 28.5t-70.5 12t-70.5 -12t-42.5 -28.5t-22 -34.5t-8 -28q-4 -32 -6 -63 t-2 -64zM380 46q0 24 12 43l830 1373q20 34 60 34q36 0 53 -18t17 -43q0 -24 -13 -42l-828 -1374q-21 -34 -62 -33q-36 0 -52.5 17.5t-16.5 42.5zM974 350q0 36 3.5 70.5t7.5 68.5q6 42 27.5 82.5t58 72t90.5 51.5t123 20q70 0 124 -20t91 -51.5t58 -72t27 -82.5 q4 -34 7 -68.5t3 -70.5q0 -38 -3 -71.5t-7 -69.5q-6 -42 -27 -82t-58 -71.5t-91 -50.5t-124 -19t-123.5 19t-90 50.5t-57.5 71.5t-28 82q-4 36 -7.5 69.5t-3.5 71.5zM1133 350q0 -34 2 -64.5t6 -61.5q2 -11 8.5 -29t22.5 -35t42 -28t70 -11q45 0 71 11t42 28t22.5 35t8.5 29 q4 31 6.5 61.5t2.5 64.5t-2 64.5t-7 60.5q-2 12 -8.5 30t-22.5 35t-42 28.5t-71 11.5q-44 0 -70 -11.5t-42 -28.5t-22.5 -35t-8.5 -30q-4 -30 -6 -60.5t-2 -64.5z" />
<glyph unicode="&#x26;" horiz-adv-x="1399" d="M116 411q0 145 68.5 265.5t201.5 209.5q-61 76 -88.5 143.5t-27.5 134.5q0 61 25 121.5t76 107t126 75t174 28.5q92 0 157.5 -15t119.5 -32q38 -12 53.5 -35.5t15.5 -48.5q0 -19 -7 -34q-20 -61 -86 -61q-21 0 -40 8q-49 17 -98.5 27.5t-114.5 10.5q-93 0 -147.5 -42 t-54.5 -110q0 -32 17.5 -79t87.5 -129l407 -481q16 59 25 118t9 120q0 16 -1.5 31t-1.5 33v8q-2 0 -2 2q0 38 28.5 61t66.5 25h8h5q36 0 62 -22t29 -62q2 -19 3 -38t1 -36q0 -85 -13.5 -166.5t-39.5 -162.5q-8 -20 -15.5 -41t-17.5 -41l139 -167q18 -19 18 -55 q0 -32 -22 -61t-74 -29q-49 0 -79 36l-99 115q-25 -26 -52 -46q-147 -112 -348 -111q-107 0 -197.5 31t-156.5 88.5t-103 135t-37 170.5zM314 411q0 -112 81.5 -179t214.5 -67q171 0 278 124l-386 456q-34 -24 -67.5 -54.5t-60 -71.5t-43.5 -92.5t-17 -115.5z" />
<glyph unicode="'" horiz-adv-x="273" d="M63 1103v378q0 30 22 51.5t52 21.5t52 -22t22 -51v-378q0 -30 -22 -52t-52 -22t-52 22t-22 52z" />
<glyph unicode="(" horiz-adv-x="604" d="M169 648q0 161 13.5 276.5t39 210.5t61 181.5t80.5 185.5q25 52 84 52q46 0 70.5 -25t24.5 -56q0 -17 -6 -36q-45 -99 -79.5 -179.5t-56.5 -167t-34 -192t-12 -250.5t12 -251t34 -192.5t56.5 -167.5t79.5 -178q6 -17 6 -36q0 -32 -24.5 -57.5t-70.5 -25.5q-59 0 -84 53 q-45 99 -80.5 185.5t-61 181.5t-39 211t-13.5 277z" />
<glyph unicode=")" horiz-adv-x="604" d="M63 -177q0 20 9 36q44 97 77.5 178t56 167.5t34 192.5t11.5 251t-11.5 250.5t-34 192t-56 166.5t-77.5 180q-8 16 -9 36q0 32 24.5 56.5t73.5 24.5q60 0 82 -52q44 -99 79.5 -185.5t61 -181.5t39.5 -211t14 -276q0 -161 -14 -277t-39.5 -211t-61 -181t-79.5 -186 q-21 -53 -82 -53q-49 0 -73.5 25.5t-24.5 57.5z" />
<glyph unicode="*" horiz-adv-x="972" d="M63 1171q0 36 24.5 60.5t59.5 24.5q49 0 96.5 -3t96.5 -3l-108 176q-11 14 -11 38q0 40 28.5 65t66.5 25q51 0 78 -44l91 -171l93 171q10 21 32 32.5t46 11.5q38 0 66.5 -25t28.5 -65q0 -17 -10 -38l-111 -176q49 0 98 3t97 3q36 0 60 -25t24 -60q0 -36 -24 -61t-60 -25 q-48 0 -97 2l-98 4l111 -177q10 -21 10 -38q0 -41 -28.5 -66t-66.5 -25q-24 0 -46 11.5t-32 32.5l-93 171l-91 -171q-27 -44 -78 -44q-38 0 -66.5 25t-28.5 66q0 20 11 38l108 177q-49 -2 -96.5 -4t-96.5 -2q-36 0 -60 25t-24 61z" />
<glyph unicode="+" horiz-adv-x="1222" d="M63 555q0 36 24.5 60.5t63.5 24.5h368v396q0 36 27.5 57.5t65.5 21.5t65.5 -22t27.5 -57v-396h366q40 0 64.5 -25t24.5 -60q0 -36 -24.5 -60t-64.5 -24h-366v-397q0 -36 -27.5 -59t-65.5 -23t-65.5 23t-27.5 59v397h-368q-40 0 -64 24t-24 60z" />
<glyph unicode="," horiz-adv-x="340" d="M10 -190q0 15 11 41q48 92 69.5 166t21.5 142q0 8 -1.5 14t-1.5 14v7v2q0 30 20 50t50 22h4h2q30 0 50 -20t23 -49v-38q0 -186 -111 -378q-23 -41 -67 -41q-16 0 -34 9q-36 16 -36 59z" />
<glyph unicode="-" horiz-adv-x="793" d="M42 555q0 30 22.5 51.5t51.5 21.5h540q30 0 52 -22t22 -51q0 -30 -22 -52t-52 -22h-540q-29 0 -51.5 22t-22.5 52z" />
<glyph unicode="." horiz-adv-x="296" d="M42 99q0 54 30.5 83t76.5 29q47 0 76.5 -29t29.5 -83q0 -55 -29.5 -84t-76.5 -29q-46 0 -76.5 29t-30.5 84z" />
<glyph unicode="/" horiz-adv-x="723" d="M10 -8q0 10 6 27l564 1491q8 19 24 31.5t40 12.5q36 0 52.5 -18.5t16.5 -46.5q0 -10 -4 -27l-566 -1492q-6 -18 -23 -31t-40 -13q-34 0 -52 19t-18 47z" />
<glyph unicode="0" d="M118 741q0 88 4.5 170.5t12.5 153.5q10 93 46 169t97 133q139 129 354 129q216 0 355 -129q61 -57 97 -133t47 -169q8 -72 12 -154t4 -170q0 -89 -4 -171.5t-12 -154.5q-19 -183 -144 -301q-139 -128 -355 -128q-215 0 -354 128q-61 57 -97 132.5t-46 168.5 q-8 72 -12.5 154.5t-4.5 171.5zM312 741q0 -83 4 -162t11 -146q4 -30 17.5 -76.5t46.5 -89.5t91 -73.5t150 -30.5q93 0 151.5 30.5t91 73.5t46 89.5t17.5 76.5q7 68 11.5 146.5t4.5 161.5q0 82 -4 161t-12 147q-4 29 -17.5 75.5t-46 90t-91 73.5t-151.5 30q-92 0 -150 -30 t-91 -73.5t-46 -90t-18 -75.5q-7 -68 -11 -147t-4 -161z" />
<glyph unicode="1" d="M219 1327q0 65 75 82l320 74q12 4 25 4h25q57 0 97 -27q32 -24 48 -57.5t16 -71.5v-1257q0 -38 -28.5 -60t-68.5 -22t-69 22t-29 60v1230l-290 -66q-8 -4 -16 -4h-14q-32 0 -55 16t-34 52q-2 8 -2 25z" />
<glyph unicode="2" d="M121 196q0 48 20 85t49 65l434 367q85 72 139 127.5t83.5 100t40.5 83.5t11 77q0 74 -30.5 117.5t-73.5 65.5t-89.5 28t-76.5 6q-74 0 -149.5 -23t-149.5 -63q-30 -17 -57 -17q-48 0 -76 47q-13 20 -13 48q0 24 12 43.5t35 32.5q195 110 398 110q103 0 189 -28.5 t147 -80.5t95 -124.5t34 -161.5q0 -68 -18 -128.5t-58.5 -124t-103.5 -130t-154 -142.5l-425 -363q-9 -6 -10 -17q0 -6 6 -12.5t14 -6.5h696q43 0 66 -26t23 -62t-23 -62.5t-66 -26.5h-718q-92 0 -146.5 58t-54.5 138z" />
<glyph unicode="3" d="M116 173q0 24 13 48q28 47 80 47q28 0 53 -13q60 -29 153.5 -60.5t183.5 -31.5q47 0 104.5 9t109.5 37.5t86.5 82.5t34.5 143q0 128 -88.5 200t-246.5 72h-99q-41 0 -65 26t-24 62t24 62.5t65 26.5h108q32 0 79 6t92.5 28t77 65.5t31.5 117.5q0 68 -25.5 110.5 t-66.5 66.5t-90.5 32t-97.5 8q-72 0 -147 -23t-149 -65q-34 -15 -57 -15q-52 0 -78 45q-12 28 -12 52q0 26 12.5 44.5t33.5 29.5q196 110 397 110q103 0 189.5 -25.5t148.5 -73.5q68 -55 102.5 -129t34.5 -167q0 -114 -54.5 -190t-152.5 -118q120 -44 186.5 -133.5 t66.5 -224.5q0 -101 -38 -184.5t-106.5 -143t-167 -90.5t-218.5 -31t-236 34.5t-196 76.5q-51 24 -51 76z" />
<glyph unicode="4" d="M114 469q0 23 7.5 49t17.5 47l481 872q10 16 31.5 34t57.5 18q46 0 72.5 -24t26.5 -60q0 -26 -13 -46l-483 -874q-4 -8 -4 -14q0 -15 21 -16h420v445q0 36 27 58.5t70 22.5q40 0 68 -22.5t28 -58.5v-445h121q40 0 64.5 -26t24.5 -62q0 -38 -24.5 -63.5t-64.5 -25.5h-121 v-204q0 -38 -28 -60t-68 -22q-43 0 -70 22t-27 60v204h-439q-36 0 -71.5 14t-63.5 38t-44.5 59t-16.5 80z" />
<glyph unicode="5" d="M109 173q0 24 14 48q10 24 32 35.5t48 11.5q24 0 52 -13q61 -29 154 -60.5t183 -31.5q163 0 249.5 74.5t86.5 217.5q0 141 -86.5 216.5t-249.5 75.5h-214q-95 0 -135 44t-40 105v19t2 19l69 389q10 67 59 112.5t122 45.5h479q42 0 65.5 -26.5t23.5 -61.5 q0 -36 -23.5 -62.5t-65.5 -26.5h-457q-4 0 -7 -3t-5 -6l-64 -369h191q123 0 222 -34t169 -97q139 -129 140 -340q0 -213 -140 -339q-141 -130 -391 -130q-120 0 -236 34.5t-195 74.5q-51 28 -52 78z" />
<glyph unicode="6" d="M129 457q0 274 138 529.5t401 475.5q32 27 71 27q54 0 78.5 -27t24.5 -61q0 -44 -30 -70q-41 -32 -91 -79.5t-105 -107t-109 -131t-98 -148.5q105 61 245 61q112 0 205 -35t159.5 -98t103 -150.5t36.5 -191.5q0 -103 -37.5 -189.5t-110.5 -149.5q-68 -60 -161.5 -93 t-200.5 -33h-4q-115 0 -209.5 34.5t-162 97.5t-105.5 149.5t-38 189.5zM322 457q-2 -137 85 -214.5t237 -79.5q147 0 232.5 77.5t87.5 212.5t-84.5 214.5t-235.5 81.5q-148 0 -234 -78.5t-88 -213.5z" />
<glyph unicode="7" d="M95 1393q0 36 24 62t64 26h757q77 0 118 -43t41 -101q0 -12 -2 -25.5t-8 -29.5q0 -2 -5.5 -14t-21.5 -48.5t-43 -98.5t-73 -163q-97 -217 -187.5 -436.5t-180.5 -468.5q-25 -61 -93 -61q-48 0 -74.5 23t-26.5 59q0 17 6 35q93 249 183.5 474t189.5 442q53 118 84 183.5 t43 95.5h-707q-40 0 -64 26.5t-24 62.5z" />
<glyph unicode="8" d="M118 435q0 130 62.5 222t173.5 142q-84 45 -131.5 121t-47.5 181q0 87 34 159.5t94 124.5t144 81.5t185 29.5t186 -29.5t145 -81.5t94 -124.5t34 -159.5q0 -105 -47.5 -181t-131.5 -121q112 -50 173.5 -142t61.5 -222q0 -99 -38 -181.5t-105.5 -143t-162 -92.5 t-209.5 -32q-114 0 -208.5 32t-162 92.5t-105.5 143t-38 181.5zM312 435q0 -127 85.5 -199.5t234.5 -72.5q150 0 236 72.5t86 199.5q0 126 -85.5 199t-236.5 73q-149 0 -234.5 -73t-85.5 -199zM369 1101q0 -101 72 -159t191 -58q121 0 192.5 58t71.5 159q0 99 -71.5 158 t-192.5 59q-120 0 -191.5 -59t-71.5 -158z" />
<glyph unicode="9" d="M107 1029q0 103 38 190t110 150q68 61 162 94t201 33h4q114 0 209 -35t162.5 -98t105.5 -149.5t38 -190.5q0 -274 -138 -529.5t-402 -474.5q-32 -28 -70 -27q-54 0 -78.5 27t-24.5 61q0 45 29 69q40 32 91 79.5t106 108t108.5 130t97.5 149.5q-105 -61 -244 -61 q-112 0 -205 34.5t-159.5 98t-103.5 150t-37 191.5zM302 1027q-2 -135 84.5 -214t235.5 -81q147 0 232.5 78t87.5 213q3 137 -84 215t-236 80q-147 0 -232.5 -78t-87.5 -213z" />
<glyph unicode=":" horiz-adv-x="423" d="M127 99q0 54 30 83t77 29q46 0 76 -29t30 -83q0 -55 -30 -84t-76 -29q-47 0 -77 29t-30 84zM127 920q0 54 30 82.5t77 28.5q46 0 76 -28.5t30 -82.5q0 -55 -30 -85t-76 -30q-47 0 -77 30t-30 85z" />
<glyph unicode=";" horiz-adv-x="421" d="M53 -190q0 15 10 41q48 92 69.5 166t21.5 142q0 8 -1.5 14t-1.5 14v7q-2 32 19.5 52t50.5 22h5h2q30 0 50 -20t22 -49v-38q0 -186 -110 -378q-24 -41 -67 -41q-17 0 -34 9q-36 16 -36 59zM123 920q0 54 30 82.5t77 28.5q46 0 77 -28.5t31 -82.5q0 -55 -31 -85t-77 -30 q-47 0 -77 30t-30 85z" />
<glyph unicode="&#x3c;" horiz-adv-x="1222" d="M63 555q0 55 25.5 100t78.5 68l858 390q26 11 46 12q24 0 47 -11t34 -36q8 -16 8 -38q0 -23 -12.5 -45.5t-38.5 -34.5l-858 -390q-10 -7 -11 -15q0 -10 11 -15l858 -391q26 -12 38.5 -34t12.5 -45q0 -21 -8 -38q-11 -26 -34 -36t-47 -10q-20 0 -46 10l-858 390 q-53 24 -78.5 69t-25.5 100z" />
<glyph unicode="=" horiz-adv-x="1222" d="M63 346q0 -36 24.5 -60t63.5 -24h920q40 0 64.5 24t24.5 60t-24.5 60.5t-64.5 24.5h-920q-40 0 -64 -24.5t-24 -60.5zM63 763q0 36 24.5 60.5t63.5 24.5h920q40 0 64.5 -24.5t24.5 -60.5t-24.5 -60t-64.5 -24h-920q-40 0 -64 24.5t-24 59.5z" />
<glyph unicode="&#x3e;" horiz-adv-x="1222" d="M63 70q0 24 13 45.5t38 33.5l858 391q11 4 11 15q0 8 -11 15l-858 390q-25 12 -38 34.5t-13 45.5q0 21 9 38q10 26 33.5 36.5t45.5 10.5q21 0 48 -12l858 -390q52 -24 77.5 -68.5t25.5 -99.5q0 -54 -25.5 -100t-77.5 -69l-858 -390q-26 -10 -48 -10q-23 0 -46 10t-33 36 q-8 16 -9 38z" />
<glyph unicode="?" horiz-adv-x="978" d="M63 1325q0 52 42 78q72 44 158.5 68.5t177.5 24.5q90 0 166.5 -25.5t130 -69.5t84 -106.5t30.5 -138.5q0 -63 -17.5 -113.5t-52.5 -99.5t-86.5 -98.5t-117.5 -108.5q-59 -50 -83 -114.5t-24 -164.5q0 -42 -29 -66t-71 -24t-70.5 24t-28.5 66q0 135 39 232.5t128 175.5 q63 57 104 97t66 72.5t35 61.5t10 60q0 44 -19 75t-48.5 50t-68.5 27t-77 8q-65 0 -120 -19t-106 -49q-28 -14 -61 -14q-23 0 -43 8t-33 30q-14 24 -15 53zM272 70v51q0 40 28.5 62t70.5 22t71 -22t29 -62v-51q0 -40 -29 -62t-71 -22t-70.5 22t-28.5 62z" />
<glyph unicode="@" horiz-adv-x="1826" d="M147 620q0 97 9 190t25 182q24 120 86 213t157 157t219 96.5t271 32.5q145 0 269.5 -32.5t219.5 -96.5t157 -157.5t85 -212.5q16 -89 25 -182t9 -190q0 -133 -25.5 -224.5t-71.5 -151t-109.5 -85.5t-139.5 -26q-61 0 -120 27t-102 83q-50 -52 -118.5 -81t-148.5 -29 q-83 0 -149.5 24t-112.5 73q-97 97 -97 295q0 57 6 125q11 89 38.5 155t64 113.5t78 78t79.5 49.5q59 30 121 42.5t124 12.5q59 0 112.5 -10.5t97.5 -27.5q80 -32 80 -97q0 -8 -2 -10l-44 -519q-2 -9 -2 -22q0 -61 31 -90t70 -29q38 0 68 15.5t49 53.5t28.5 100t9.5 155 q0 177 -32 342q-34 179 -178.5 268.5t-369.5 89.5q-226 0 -370.5 -89.5t-180.5 -268.5q-15 -82 -22 -166.5t-7 -175.5t7 -175.5t22 -166.5q36 -179 180.5 -268.5t370.5 -89.5q68 0 126.5 5t115.5 17t115 31t124 46q20 10 50 11q46 0 69 -42q12 -24 13 -45q0 -27 -15.5 -47.5 t-38.5 -30.5q-74 -32 -141.5 -54t-134 -35.5t-136 -20t-147.5 -6.5q-146 0 -270.5 33t-219.5 97t-157 157t-86 213q-16 89 -25 181.5t-9 189.5zM660 525q0 -131 53 -187q42 -42 131 -42q54 0 94 19t69 48t43.5 68.5t18.5 77.5l36 413q-46 14 -107 14q-42 0 -84.5 -8 t-78.5 -25q-141 -72 -167 -273q-4 -30 -6 -54.5t-2 -50.5z" />
<glyph unicode="A" horiz-adv-x="1256" d="M42 74q0 8 4 29l378 1241q17 61 67.5 103t136.5 42q85 0 136 -42t69 -103l376 -1241q6 -16 6 -29q0 -38 -28.5 -60t-71.5 -22q-78 0 -100 67l-115 380h-544l-116 -380q-10 -34 -36.5 -50.5t-64.5 -16.5q-42 0 -69.5 22t-27.5 60zM411 620h435l-206 675q-4 12 -12 13 q-6 0 -12 -13z" />
<glyph unicode="B" horiz-adv-x="1399" d="M190 175v1061q0 44 15.5 87.5t46 78.5t78.5 57t111 22h310q127 0 213.5 -36t140 -93t77.5 -130t24 -144q0 -90 -38.5 -169.5t-127.5 -129.5q115 -43 174.5 -127t59.5 -224q0 -202 -126.5 -315t-356.5 -113h-409q-84 0 -138 50.5t-54 124.5zM388 181h403q95 0 152 23.5 t86.5 60.5t37.5 80t8 83q0 47 -10 91t-42.5 78.5t-96 56t-167.5 21.5h-371v-494zM388 856h363q24 0 67 3.5t85.5 24.5t73.5 66.5t31 127.5q0 222 -257 222h-298q-34 0 -49.5 -19t-15.5 -45v-380z" />
<glyph unicode="C" horiz-adv-x="1347" d="M147 741q0 86 5 169.5t13 154.5q23 205 166.5 318t379.5 113q147 0 249.5 -26.5t182.5 -60.5q26 -10 41.5 -33.5t15.5 -52.5q0 -21 -8 -39q-21 -54 -81 -54q-29 0 -50 10q-76 32 -156 53t-194 21q-99 0 -164.5 -24t-104.5 -63t-57 -86.5t-25 -94.5q-6 -68 -10 -146.5 t-4 -158.5q0 -83 4 -161t10 -145q32 -268 351 -268q114 0 194 20.5t156 52.5q21 10 48 11q30 0 51 -13.5t32 -41.5q8 -17 8 -37q0 -30 -15.5 -53.5t-41.5 -33.5q-80 -34 -182 -60t-250 -26q-236 0 -380 112.5t-166 316.5q-8 72 -13 154.5t-5 171.5z" />
<glyph unicode="D" horiz-adv-x="1421" d="M190 245v1061q0 74 49.5 124.5t129.5 50.5h313q257 0 407 -129q65 -54 105 -128.5t56 -162.5q11 -74 17.5 -151t6.5 -169q0 -93 -6 -170.5t-18 -150.5q-16 -88 -56 -162.5t-105 -128.5q-155 -129 -405 -129h-239q-55 0 -102 19t-81 52.5t-53 78t-19 95.5zM388 245 q0 -63 61 -64h233q101 0 168.5 24.5t110.5 62.5t64 85.5t30 93.5q10 68 15 137.5t5 156.5q0 86 -5 155.5t-15 137.5q-9 46 -30 93.5t-64 85t-110.5 62.5t-168.5 25h-294v-1055z" />
<glyph unicode="E" horiz-adv-x="1315" d="M190 175v1061q0 50 19 94.5t53 78.5t80 53t101 19h628q42 0 66.5 -26.5t24.5 -64.5t-24.5 -64t-66.5 -26h-620q-30 0 -46.5 -18t-16.5 -46v-380h633q42 0 66 -26.5t24 -64.5t-24 -64t-66 -26h-633v-494h701q42 0 66 -26t24 -64t-24 -64.5t-66 -26.5h-718q-81 0 -131 50.5 t-50 124.5z" />
<glyph unicode="F" horiz-adv-x="1298" d="M190 74v1162q0 50 19 94.5t53 78.5t80 53t101 19h628q42 0 66.5 -26.5t24.5 -64.5t-24.5 -64t-66.5 -26h-620q-30 0 -46.5 -18t-16.5 -46v-380h633q42 0 66 -26.5t24 -64.5t-24 -64t-66 -26h-633v-601q0 -36 -28 -59t-71 -23q-42 0 -70.5 23t-28.5 59z" />
<glyph unicode="G" horiz-adv-x="1393" d="M147 741q0 86 5 169.5t13 154.5q23 205 166.5 318t379.5 113q147 0 249.5 -26.5t182.5 -60.5q32 -12 45.5 -35.5t13.5 -48.5q0 -21 -10 -43q-24 -54 -83 -54q-27 0 -48 10q-76 32 -156 54t-194 22q-319 0 -351 -268q-6 -68 -10 -145.5t-4 -159.5q0 -83 4 -161t10 -145 q32 -268 351 -268q52 0 108.5 9t102.5 20t75 21l28 11q24 8 24 30v350h-205q-43 0 -67 26t-24 64t24 64.5t67 26.5h225q80 0 128.5 -48.5t48.5 -122.5v-360q0 -79 -41 -128.5t-108 -72.5q-4 0 -39 -11.5t-89.5 -25.5t-122 -24t-135.5 -10q-236 0 -380 112.5t-166 316.5 q-8 72 -13 155.5t-5 170.5z" />
<glyph unicode="H" horiz-adv-x="1442" d="M190 74v1333q0 36 28.5 59t70.5 23q43 0 71 -23t28 -59v-551h667v551q0 36 28 59t71 23q42 0 71 -23t29 -59v-1333q0 -36 -29 -59t-71 -23q-43 0 -71 23t-28 59v601h-667v-601q0 -36 -28 -59t-71 -23q-42 0 -70.5 23t-28.5 59z" />
<glyph unicode="I" horiz-adv-x="577" d="M190 74v1333q0 36 28.5 59t70.5 23q43 0 71 -23t28 -59v-1333q0 -36 -28 -59t-71 -23q-42 0 -70.5 23t-28.5 59z" />
<glyph unicode="J" horiz-adv-x="1157" d="M32 154q0 24 10 45q21 52 81 52q29 0 50 -11q80 -36 154 -54.5t173 -18.5q76 0 131 26t90.5 67.5t52.5 94t17 104.5v948q0 36 28.5 59t70.5 23t71 -23t29 -59v-948q0 -90 -32 -173t-91 -149q-68 -74 -161.5 -112.5t-205.5 -38.5q-127 0 -222 24t-189 66q-57 28 -57 78z " />
<glyph unicode="K" horiz-adv-x="1292" d="M190 74v1333q0 36 28.5 59t70.5 23q43 0 71 -23t28 -59v-551h93q42 0 69.5 17t57.5 55l398 517q15 19 36 31.5t51 12.5q52 0 78.5 -27t26.5 -63q0 -34 -17 -53l-380 -494q-20 -26 -45.5 -47.5t-57.5 -39.5q57 -34 95 -83l418 -547q19 -26 19 -57q0 -34 -24.5 -60 t-74.5 -26q-61 0 -93 42l-430 565q-36 45 -63.5 60.5t-63.5 15.5h-93v-601q0 -36 -28 -59t-71 -23q-42 0 -70.5 23t-28.5 59z" />
<glyph unicode="L" horiz-adv-x="1195" d="M190 245v1162q0 36 28.5 59t70.5 23q43 0 71 -23t28 -59v-1162q0 -28 20 -46t49 -18h628q42 0 66 -26t24 -64t-24 -64.5t-66 -26.5h-628q-54 0 -103.5 19t-85.5 52.5t-57 78t-21 95.5z" />
<glyph unicode="M" horiz-adv-x="1705" d="M190 74v1215q0 36 12.5 72t39 64t65.5 46t94 18q88 0 137.5 -47t67.5 -103l236 -839q4 -11 10 -11q8 0 13 11l236 839q17 55 66.5 102.5t138.5 47.5q53 0 93 -18t66 -46t39 -64t13 -72v-1215q0 -36 -28.5 -59t-71.5 -23q-42 0 -70.5 23t-28.5 59v1217q0 16 -12 17 q-8 0 -13 -13l-236 -840q-21 -74 -76 -108.5t-129 -34.5t-127.5 35t-74.5 108l-239 840q0 12 -12 13q-11 0 -11 -17v-1217q0 -36 -28 -59t-71 -23q-42 0 -70.5 23t-28.5 59z" />
<glyph unicode="N" horiz-adv-x="1495" d="M190 74v1215q0 82 56 141t153 59q74 0 124.5 -37t73.5 -91l488 -1178q4 -10 12 -10q10 0 10 14v1220q0 36 28.5 58t70.5 22t71 -22t29 -58v-1215q0 -83 -56 -141.5t-153 -58.5q-74 0 -124.5 35.5t-74.5 93.5l-487 1177q-4 10 -12 10q-11 0 -11 -17v-1217q0 -36 -28 -59 t-71 -23q-42 0 -70.5 23t-28.5 59z" />
<glyph unicode="O" horiz-adv-x="1421" d="M147 741q0 86 5 169.5t13 154.5q23 205 166.5 318t379.5 113t379.5 -113t167.5 -318q8 -72 12 -155t4 -169q0 -87 -4 -170.5t-12 -155.5q-24 -205 -167.5 -317t-379.5 -112t-380 112.5t-166 316.5q-8 72 -13 155.5t-5 170.5zM346 741q0 -83 4 -161t10 -145 q32 -268 351 -268q318 0 350 268q6 68 10 145.5t4 160.5q0 82 -4 159.5t-10 145.5q-32 268 -350 268q-319 0 -351 -268q-6 -68 -10 -145.5t-4 -159.5z" />
<glyph unicode="P" horiz-adv-x="1280" d="M190 74v1152q0 46 15.5 91.5t48.5 82.5t81.5 59t115.5 22h304q109 0 194 -31t141.5 -85.5t86 -128.5t29.5 -163q0 -88 -29.5 -163t-86 -129.5t-141 -85.5t-194.5 -31h-367v-590q0 -36 -28 -59t-71 -23q-42 0 -70.5 23t-28.5 59zM388 846h367q107 0 180 53t73 174 t-72.5 174t-180.5 53h-302q-65 0 -65 -70v-384z" />
<glyph unicode="Q" horiz-adv-x="1421" d="M147 741q0 86 5 169.5t13 154.5q23 205 166.5 318t379.5 113t379.5 -113t167.5 -318q8 -72 12 -155t4 -169q0 -87 -4 -170.5t-12 -155.5q-11 -84 -43 -153.5t-82 -122.5l113 -153q17 -24 18 -51q0 -48 -44 -76q-24 -15 -56 -16q-24 0 -45.5 10t-35.5 31l-111 148 q-56 -24 -121.5 -35t-139.5 -11q-236 0 -380 112.5t-166 316.5q-8 72 -13 155.5t-5 170.5zM346 741q0 -83 4 -161t10 -145q32 -268 351 -268q84 0 148 18l-84 115q-19 20 -20 50q0 47 44 74q28 17 55 17q52 0 82 -40l79 -103q16 30 29 62t17 75q6 68 10 145.5t4 160.5 q0 82 -4 159.5t-10 145.5q-32 268 -350 268q-319 0 -351 -268q-6 -68 -10 -145.5t-4 -159.5z" />
<glyph unicode="R" horiz-adv-x="1328" d="M190 74v1152q0 50 17 95.5t50.5 81.5t83 57t114.5 21h300q109 0 194 -31t141.5 -85.5t86 -128.5t29.5 -163q0 -86 -27 -158.5t-81 -126.5t-133 -85.5t-182 -36.5q32 -25 63 -62l367 -467q21 -24 21 -57q0 -34 -24 -61t-75 -27q-61 0 -91 40l-440 556q-39 49 -61 62.5 t-52 13.5h-103v-590q0 -36 -28 -59t-71 -23q-42 0 -70.5 23t-28.5 59zM388 846h367q107 0 180 53t73 174t-72.5 174t-180.5 53h-300q-36 0 -51.5 -19t-15.5 -51v-384z" />
<glyph unicode="S" horiz-adv-x="1204" d="M116 137q0 16 7 36q10 32 32 46.5t52 14.5q24 0 42 -8q45 -15 83.5 -27t77.5 -19t81.5 -10t94.5 -3q145 0 229.5 69.5t84.5 187.5q0 34 -10 67.5t-42.5 64t-95 58.5t-166.5 52q-238 55 -349.5 154.5t-111.5 276.5q0 185 129.5 292t355.5 107q187 0 348 -53q65 -24 65 -84 q0 -17 -6 -36q-11 -30 -32 -46.5t-53 -16.5q-10 0 -21 2t-21 6q-68 24 -134 35t-146 11q-288 0 -288 -217q0 -80 68.5 -139.5t243.5 -98.5q108 -26 194 -61t146 -86.5t92.5 -122t32.5 -165.5q0 -92 -37 -172.5t-104 -139.5q-144 -126 -372 -126q-76 0 -135 5t-106 14 t-86.5 22t-77.5 26q-65 18 -65 84z" />
<glyph unicode="T" horiz-adv-x="1168" d="M21 1390q0 39 24.5 65t66.5 26h945q42 0 66 -26.5t24 -64.5t-24 -64t-66 -26h-373v-1226q0 -36 -29 -59t-71 -23t-70.5 23t-28.5 59v1226h-373q-42 0 -66.5 26t-24.5 64z" />
<glyph unicode="U" horiz-adv-x="1442" d="M169 578v829q0 40 31.5 61t67.5 21t67.5 -21t31.5 -61v-805q0 -43 2 -84t7 -83q8 -75 37.5 -126t75 -83t104.5 -45.5t128 -13.5q70 0 129 13.5t104.5 45.5t75 83t37.5 126q6 46 7 90.5t1 92.5v789q0 40 32 61t68 21t67.5 -21t31.5 -61v-803q0 -49 -2 -95.5t-6 -93.5 q-12 -112 -60 -192t-121 -133.5t-166 -78.5t-198 -25t-197.5 25t-166 78.5t-120.5 134t-60 191.5q-4 40 -6 80.5t-2 82.5z" />
<glyph unicode="V" horiz-adv-x="1256" d="M42 1407q0 38 27.5 60t69.5 22q38 0 64.5 -17t36.5 -51l376 -1236q6 -12 12 -12t12 12l375 1236q23 68 100 68q43 0 71.5 -22t28.5 -60q0 -14 -6 -30l-376 -1240q-18 -61 -69 -103t-136 -42q-86 0 -136.5 42t-67.5 103l-378 1240q-4 21 -4 30z" />
<glyph unicode="W" horiz-adv-x="1840" d="M42 1401q0 36 26.5 62t72.5 26t69.5 -22t29.5 -54l231 -1226q2 -14 10 -14q10 0 12 14l220 1131q14 72 70 117.5t139 45.5q80 0 135.5 -45.5t71.5 -117.5l219 -1131q2 -14 13 -14q10 0 12 14l230 1226q6 32 28.5 54t71.5 22q46 0 71 -26t25 -62v-20l-229 -1224 q-15 -77 -73 -121t-136 -44q-75 0 -133.5 42t-73.5 123l-222 1129q0 13 -10 14q-10 0 -13 -14l-219 -1129q-16 -81 -75.5 -123t-133.5 -42q-78 0 -135 44t-72 121l-230 1224q-2 6 -2 20z" />
<glyph unicode="X" horiz-adv-x="1435" d="M74 78q0 28 17 53l358 546q40 56 91 93q-21 15 -39 33t-32 41l-334 506q-14 26 -14 49q0 36 25 63t73 27q39 0 62 -17t39 -41l322 -491q36 -52 48 -64.5t29 -12.5q14 0 28 12.5t48 64.5l320 491q17 25 41.5 41.5t60.5 16.5q49 0 74 -27t25 -63q0 -28 -14 -49l-332 -506 q-16 -24 -34 -41.5t-38 -32.5q53 -36 89 -93l359 -546q17 -26 17 -53q0 -36 -27.5 -61t-73.5 -25q-30 0 -55.5 14.5t-42.5 37.5l-365 558q-16 25 -28 40.5t-20 24t-15.5 12t-16.5 3.5q-17 0 -32.5 -14t-49.5 -66l-365 -558q-17 -23 -41 -37.5t-56 -14.5q-46 0 -73.5 25 t-27.5 61z" />
<glyph unicode="Y" horiz-adv-x="1298" d="M32 1399q0 36 26 63t73 27q36 0 59 -14.5t38 -35.5l340 -501q36 -50 51 -62.5t31 -12.5q14 0 30 12.5t52 62.5l341 501q15 21 37.5 35.5t58.5 14.5q46 0 72.5 -27t26.5 -63q0 -28 -14 -49l-349 -511q-34 -48 -72 -84t-84 -55v-626q0 -36 -28.5 -59t-70.5 -23t-70.5 23 t-28.5 59v626q-46 19 -84.5 55t-72.5 84l-348 511q-14 21 -14 49z" />
<glyph unicode="Z" d="M84 199q0 32 12.5 68.5t42.5 68.5l819 934q4 8 4 12q0 17 -16 18h-725q-42 0 -66 26t-24 64q0 39 24 65t66 26h737q99 0 154 -56t55 -141q0 -34 -13 -69.5t-39 -65.5l-821 -938q-5 -4 -5 -10q0 -19 19 -20h783q42 0 66 -26t24 -64t-24 -64.5t-66 -26.5h-795q-45 0 -83 16 t-66.5 42t-45.5 62.5t-17 78.5z" />
<glyph unicode="[" horiz-adv-x="718" d="M190 -101v1498q0 60 43 101.5t109 41.5h228q38 0 62 -24.5t24 -60.5t-24 -61t-62 -25h-194v-1443h194q38 0 62 -25.5t24 -61.5t-24 -60t-62 -24h-228q-65 0 -108.5 41t-43.5 103z" />
<glyph unicode="\" horiz-adv-x="723" d="M10 1489q0 28 18 46.5t52 18.5q24 0 40.5 -12t22.5 -32l566 -1491q2 -9 3 -15t1 -12q0 -28 -17 -47t-52 -19q-24 0 -40 13t-24 31l-564 1492q-6 12 -6 27z" />
<glyph unicode="]" horiz-adv-x="718" d="M63 -161q0 36 24.5 61.5t61.5 25.5h195v1443h-195q-38 0 -62 25t-24 61t24.5 60.5t61.5 24.5h229q63 0 107 -41.5t44 -101.5v-1498q0 -61 -44 -102.5t-107 -41.5h-229q-38 0 -62 24.5t-24 59.5z" />
<glyph unicode="^" horiz-adv-x="1222" d="M99 602q0 16 6 32l319 794q21 54 67.5 90t120.5 36t120.5 -35.5t66.5 -90.5l319 -794q6 -16 7 -32q0 -37 -26 -62t-74 -25q-65 0 -89 57l-314 789q-2 8 -10 8t-10 -8l-315 -789q-23 -57 -88 -57q-49 0 -74.5 25t-25.5 62z" />
<glyph unicode="_" horiz-adv-x="1195" d="M10 -230q0 24 18 39.5t42 15.5h1057q26 0 42.5 -16t16.5 -39t-16.5 -37.5t-42.5 -14.5h-1057q-24 0 -42 14.5t-18 37.5z" />
<glyph unicode="`" horiz-adv-x="695" d="M139 1451q0 24 20 47q18 20 50 21q24 0 46 -17l212 -196q20 -18 20 -50q0 -30 -16 -47q-21 -21 -51 -21q-26 0 -47 16l-210 197q-24 18 -24 50z" />
<glyph unicode="a" horiz-adv-x="1197" d="M116 369q0 61 17 118q78 266 457 266q63 0 131 -7t142 -20q-4 61 -19 98t-45 60q-65 65 -204 66q-42 0 -77 -2t-67.5 -8t-67.5 -14t-75 -19q-17 -4 -30 -4q-30 0 -56 15.5t-35 47.5q-4 21 -4 30q0 32 19 53.5t51 30.5q47 13 88 21t81 13.5t81 8t92 2.5q217 0 343 -117 q79 -72 101 -164.5t22 -219.5v-139q0 -127 -22 -219.5t-101 -164.5q-125 -115 -339 -115h-4q-128 0 -213.5 30t-137.5 72.5t-77.5 87.5t-33.5 75q-17 57 -17 118zM310 369q0 -45 8 -69q45 -139 277 -139q139 0 204 65q38 34 53 92t15 167v76q-74 11 -146.5 16t-125.5 5 q-88 0 -140 -15.5t-80.5 -37.5t-39.5 -47t-17 -41q-8 -28 -8 -72z" />
<glyph unicode="b" horiz-adv-x="1250" d="M159 555v920q0 36 28 57.5t68 21.5q41 0 69 -22t28 -57v-412q74 28 149 45t145 17q191 0 312 -94.5t145 -263.5q6 -46 8 -96.5t2 -115.5t-2 -116t-8 -97q-24 -169 -147 -262.5t-319 -93.5q-199 0 -322 93.5t-146 262.5q-8 50 -9 106t-1 107zM352 555q0 -56 2 -104t6 -86 q30 -204 275 -204h2h2q243 0 273 204q6 42 7 93t1 97q0 47 -1 97t-7 93q-30 205 -275 205q-53 0 -133 -16t-152 -40v-339z" />
<glyph unicode="c" horiz-adv-x="1174" d="M137 555q0 65 2 115.5t8 96.5q24 169 147.5 263.5t321.5 94.5q175 0 380 -94q53 -26 53 -77q0 -19 -11 -45q-26 -50 -80 -50q-26 0 -51 12q-84 38 -153.5 58.5t-137.5 20.5q-247 0 -276 -205q-6 -43 -7 -93t-1 -97q0 -46 1 -97t7 -93q30 -204 274 -204h2q68 0 137.5 20 t153.5 57q26 12 51 13q57 0 80 -50q11 -26 11 -42q0 -28 -15 -49t-38 -32q-205 -92 -380 -92q-199 0 -322 93.5t-147 262.5q-6 46 -8 96.5t-2 116.5z" />
<glyph unicode="d" horiz-adv-x="1250" d="M137 555q0 65 2 115.5t8 96.5q24 169 145 263.5t314 94.5q70 0 144.5 -17t147.5 -45v412q0 36 29 57.5t69 21.5t68.5 -22t28.5 -57v-920q0 -50 -1 -106.5t-9 -106.5q-24 -169 -147.5 -262.5t-319.5 -93.5q-199 0 -322 93.5t-147 262.5q-6 46 -8 96.5t-2 116.5zM332 555 q0 -46 1 -97t7 -93q30 -204 274 -204h2h2q242 0 272 204q4 38 6 85t2 105v339q-72 24 -152 40t-130 16q-247 0 -276 -205q-6 -43 -7 -93t-1 -97z" />
<glyph unicode="e" horiz-adv-x="1224" d="M137 555q0 65 2 115.5t8 96.5q24 169 147.5 263.5t321.5 94.5q196 0 319.5 -94.5t147.5 -263.5q6 -38 6 -69q0 -112 -58.5 -163.5t-163.5 -51.5h-535q2 -30 3 -60.5t5 -57.5q30 -204 274 -204h2q68 0 137.5 19.5t153.5 57.5q26 12 51 13q57 0 80 -50q11 -26 11 -42 q0 -28 -15 -49t-38 -32q-205 -92 -380 -92q-199 0 -322 93.5t-147 262.5q-6 46 -8 96.5t-2 116.5zM334 658h516q20 0 31 8.5t11 38.5v17.5t-2 22.5q-30 205 -274 205q-246 0 -276 -205q-6 -38 -6 -87z" />
<glyph unicode="f" horiz-adv-x="920" d="M169 72v983q0 126 23 219t99 165q128 115 342 115h4q124 0 217 -37q57 -23 58 -80q0 -17 -7 -36q-10 -26 -31.5 -41.5t-52.5 -15.5q-24 0 -42 8q-40 11 -76.5 19t-70.5 8q-60 0 -110.5 -14.5t-90.5 -50.5q-32 -30 -48 -76t-20 -129h445q40 0 64 -26t24 -62t-24 -61.5 t-64 -25.5h-445v-862q0 -36 -28.5 -58t-68.5 -22t-68.5 22t-28.5 58z" />
<glyph unicode="g" horiz-adv-x="1240" d="M137 534v52v52t2 41t3 38t5 44q24 171 148.5 267.5t320.5 96.5q217 0 344 -117q78 -72 100.5 -163.5t22.5 -216.5v-512q0 -126 -22.5 -219t-100.5 -165q-127 -116 -344 -116q-188 0 -392 93q-24 10 -37.5 32.5t-13.5 45.5q0 26 10 44q11 26 33 38.5t48 12.5q25 0 48 -13 q80 -36 157 -57t147 -21q139 0 205 66q36 32 51.5 86.5t15.5 155.5q-70 -28 -140.5 -42.5t-137.5 -14.5q-194 0 -316.5 96t-146.5 267q-4 26 -5 46t-3 40t-2 43zM332 586q0 -55 2 -86t6 -72q28 -209 276 -209q50 0 126.5 13t145.5 36v360q0 61 -4 104t-12.5 71t-21.5 47 t-29 34q-70 65 -205 66q-247 0 -276 -211q-2 -19 -4 -35t-3 -33t-1 -37v-48z" />
<glyph unicode="h" horiz-adv-x="1266" d="M169 72v1403q0 36 28.5 57.5t68.5 21.5t68.5 -22t28.5 -57v-418q68 30 142.5 49t144.5 19q214 0 337 -117q76 -72 99 -164.5t23 -219.5v-552q0 -36 -28 -58t-69 -22q-42 0 -69 22t-27 58v552q0 109 -16 167.5t-52 92.5q-68 65 -206 66q-63 0 -137 -14t-142 -40v-824 q0 -36 -28.5 -58t-68.5 -22t-68.5 22t-28.5 58z" />
<glyph unicode="i" horiz-adv-x="524" d="M159 1377q0 42 30 73t73 31q44 0 74.5 -31t30.5 -73q0 -44 -30.5 -74.5t-74.5 -30.5q-43 0 -73 30.5t-30 74.5zM165 72v966q0 36 28 58t69 22q42 0 69 -22.5t27 -57.5v-966q0 -36 -27 -58t-69 -22q-41 0 -69 22t-28 58z" />
<glyph unicode="j" horiz-adv-x="568" d="M-159 -296q0 45 26 66t68 21q137 0 206 66q40 38 54 95.5t14 163.5v922q0 36 28.5 58t68.5 22q42 0 69.5 -22.5t27.5 -57.5v-922q0 -126 -23.5 -219t-99.5 -165q-126 -116 -345 -116q-44 0 -69 23t-25 65zM203 1377q0 42 30.5 73t72.5 31t73.5 -31t31.5 -73 q0 -44 -31.5 -74.5t-73.5 -30.5t-72.5 30.5t-30.5 74.5z" />
<glyph unicode="k" horiz-adv-x="1165" d="M169 72v1403q0 36 28.5 57.5t68.5 21.5t68.5 -22t28.5 -57v-800h80q24 0 41.5 12.5t57.5 51.5l346 344q16 16 37 25.5t51 9.5q49 0 74 -25.5t25 -58.5q0 -38 -29 -66l-303 -304q-36 -36 -103 -76q32 -18 57.5 -41.5t47.5 -46.5l335 -363q23 -27 23 -57q0 -34 -25 -61 t-74 -27q-54 0 -84 34l-386 417q-17 18 -28 30t-19 17t-15 7.5t-21 2.5h-88v-428q0 -36 -28.5 -58t-68.5 -22t-68.5 22t-28.5 58z" />
<glyph unicode="l" horiz-adv-x="577" d="M169 367v1106q0 36 28.5 58.5t68.5 22.5t68.5 -23t28.5 -58v-1106q0 -45 6.5 -75t19 -54.5t32.5 -45.5t50 -43q33 -26 33 -63q0 -29 -21 -56q-28 -38 -72 -38q-30 0 -59 18q-101 70 -142 151.5t-41 205.5z" />
<glyph unicode="m" horiz-adv-x="1683" d="M159 72v691q0 74 25 139.5t74 114.5q112 107 290 108q97 0 173 -33t125 -92q48 59 121 92t168 33q178 -1 291 -108q98 -99 99 -254v-691q0 -36 -27.5 -58t-69.5 -22q-41 0 -69 22t-28 58v691q0 21 -5.5 53t-26.5 61.5t-60 51t-104 21.5q-68 0 -105.5 -21.5t-58.5 -51 t-27 -61t-6 -53.5v-691q0 -36 -27 -58t-69 -22q-41 0 -69 22t-28 58v691q0 21 -5.5 53t-26.5 61.5t-60 51t-105 21.5q-68 0 -105.5 -21.5t-58.5 -51t-26.5 -61t-5.5 -53.5v-691q0 -36 -28 -58t-69 -22q-40 0 -68 22t-28 58z" />
<glyph unicode="n" horiz-adv-x="1252" d="M159 72v552q0 127 23 219.5t98 164.5q129 117 346 117q218 0 344 -117q79 -72 102 -164.5t23 -219.5v-552q0 -36 -28.5 -58t-68.5 -22q-42 0 -70 22t-28 58v552q0 109 -15.5 167.5t-51.5 92.5q-68 65 -207 66q-139 0 -206 -66q-38 -34 -53 -92t-15 -168v-552 q0 -36 -28 -58t-69 -22q-40 0 -68 22t-28 58z" />
<glyph unicode="o" horiz-adv-x="1228" d="M137 555q0 65 2 115.5t8 96.5q24 169 147.5 263.5t321.5 94.5q196 0 319.5 -94.5t147.5 -263.5q8 -50 9 -105.5t1 -106.5q0 -50 -1 -106.5t-9 -106.5q-24 -169 -147.5 -262.5t-319.5 -93.5q-199 0 -322 93.5t-147 262.5q-6 46 -8 96.5t-2 116.5zM332 555q0 -46 1 -97 t7 -93q30 -204 274 -204h2q245 0 274 204q4 38 6 85t2 105q0 57 -2 104.5t-6 85.5q-29 205 -274 205q-247 0 -276 -205q-6 -43 -7 -93t-1 -97z" />
<glyph unicode="p" horiz-adv-x="1250" d="M159 -304v859q0 51 1 106.5t9 105.5q24 169 147 263.5t321 94.5q195 0 318.5 -94.5t147.5 -263.5q6 -46 8 -96.5t2 -115.5t-2 -116t-8 -97q-24 -169 -145 -262.5t-312 -93.5q-70 0 -145 16.5t-149 43.5v-350q0 -36 -28 -58t-69 -22q-40 0 -68 22t-28 58zM352 215 q72 -23 152 -38.5t133 -15.5h2q243 0 273 204q6 42 7 93t1 97q0 47 -1 97t-7 93q-30 205 -275 205q-248 0 -277 -205q-4 -38 -6 -85.5t-2 -104.5v-340z" />
<glyph unicode="q" horiz-adv-x="1250" d="M137 555q0 65 2 115.5t8 96.5q24 169 147.5 263.5t321.5 94.5q196 0 319.5 -94.5t147.5 -263.5q8 -50 9 -105.5t1 -106.5v-859q0 -36 -28.5 -58t-68.5 -22t-69 22t-29 58v350q-74 -27 -148.5 -43.5t-143.5 -16.5q-192 0 -313.5 93.5t-145.5 262.5q-6 46 -8 96.5t-2 116.5 zM332 555q0 -46 1 -97t7 -93q29 -204 276 -204q50 0 130.5 15.5t151.5 38.5v340q0 57 -2 104.5t-6 85.5q-30 205 -274 205q-247 0 -276 -205q-6 -43 -7 -93t-1 -97z" />
<glyph unicode="r" horiz-adv-x="932" d="M159 72v479q0 65 2 117.5t8 98.5q24 171 144 264.5t315 93.5q57 0 116 -11t108 -27q59 -19 60 -79q0 -18 -7 -38q-10 -30 -34.5 -43t-51.5 -13q-24 0 -38 6q-24 8 -65 19t-88 11q-240 0 -268 -205q-4 -38 -6 -85.5t-2 -108.5v-479q0 -36 -28 -58t-69 -22q-40 0 -68 22 t-28 58z" />
<glyph unicode="s" horiz-adv-x="1039" d="M105 123q0 6 1 12t3 14q6 28 28 46t57 18q8 0 16.5 -1t19.5 -3q63 -16 135 -32t156 -16q125 0 172.5 43t47.5 106q0 59 -49.5 93t-184.5 59q-199 39 -295 118.5t-96 224.5q0 146 110 233q109 87 308 87q78 0 139 -9t122 -25q32 -8 51 -30.5t19 -56.5q0 -4 -1 -10.5 t-1 -12.5q-8 -36 -33 -51.5t-53 -15.5h-17.5t-16.5 4q-51 12 -99.5 22t-109.5 10q-224 0 -224 -140q0 -61 59 -98t175 -60q191 -36 290.5 -111.5t99.5 -226.5q0 -59 -22 -118t-70.5 -105.5t-127 -75.5t-193.5 -29q-103 0 -189.5 15t-156.5 35q-30 8 -50 30.5t-20 56.5z" />
<glyph unicode="t" horiz-adv-x="963" d="M159 485v916q0 36 28 58t68 22q41 0 69 -22t28 -58v-292h456q40 0 64 -26t24 -62t-24 -61.5t-64 -25.5h-456v-449q0 -109 15 -167t53 -92q40 -36 90.5 -50.5t111.5 -14.5q34 0 70 8t75 18q19 9 43 9q32 0 53 -15.5t31 -41.5q6 -18 6 -36q0 -59 -56 -79q-93 -38 -218 -38 q-217 0 -346 115q-76 72 -98.5 164.5t-22.5 219.5z" />
<glyph unicode="u" horiz-adv-x="1252" d="M159 485v553q0 36 28 58t68 22q41 0 69 -22.5t28 -57.5v-553q0 -109 15 -167t53 -92q72 -65 206 -65q139 0 207 65q36 34 51.5 92t15.5 167v553q0 36 28 58t70 22q40 0 68.5 -22.5t28.5 -57.5v-553q0 -127 -23 -219.5t-102 -164.5q-126 -115 -344 -115q-217 0 -346 115 q-76 72 -98.5 164.5t-22.5 219.5z" />
<glyph unicode="v" horiz-adv-x="1093" d="M63 1034q0 36 26.5 60t71.5 24q76 0 97 -65l195 -612l81 -264q4 -12 14 -12q8 0 13 12l81 264l195 612q23 65 97 65q47 0 72 -24.5t25 -59.5v-14t-4 -16l-280 -871q-21 -68 -75 -104.5t-124 -36.5q-72 0 -125.5 36.5t-74.5 104.5l-280 871q-4 21 -5 30z" />
<glyph unicode="w" horiz-adv-x="1735" d="M63 1029q0 36 24.5 61t69.5 25q42 0 67 -20t34 -49l193 -863q2 -14 16 -14q10 0 12 12l183 777q17 68 67 109.5t140 41.5q89 0 138.5 -42t65.5 -109l185 -777q2 -12 14 -12q10 0 12 14l197 863q6 30 31.5 49.5t67.5 19.5q44 0 68.5 -25t24.5 -61q0 -17 -2 -25l-192 -857 q-16 -74 -71.5 -114.5t-133.5 -40.5t-134.5 41t-74.5 112l-183 775q-2 14 -13 14q-12 0 -15 -14l-183 -775q-17 -72 -73 -112.5t-133 -40.5q-81 0 -135 41t-70 114l-195 857q-2 8 -2 25z" />
<glyph unicode="x" horiz-adv-x="1187" d="M74 72q0 28 19 57l265 375q34 46 70 76q-42 30 -74 74l-231 329q-17 27 -18 51q0 34 26 59t68 25q68 0 101 -51l251 -356q24 -34 29.5 -40.5t14.5 -6.5t15 6.5t30 40.5l248 356q38 51 102 51q42 0 67.5 -25.5t25.5 -58.5q0 -28 -18 -51l-232 -329q-28 -44 -72 -74 q38 -30 68 -76l266 -375q18 -26 18 -57q0 -34 -24 -56t-66 -22q-70 0 -103 48l-272 386q-26 37 -34 49t-19 12q-10 0 -20 -12t-35 -49l-272 -386q-34 -48 -101 -48q-42 0 -67.5 22t-25.5 56z" />
<glyph unicode="y" horiz-adv-x="1109" d="M63 1034q0 34 25.5 59t72.5 25q32 0 58 -15.5t39 -45.5l301 -711q15 -32 18 -40t7 -8t5 6t10 23l3 2l248 715q23 74 106 74q38 0 64 -23.5t26 -58.5q0 -18 -6 -34l-338 -970q-27 -78 -61.5 -152t-86.5 -132t-127 -94t-182 -38h-5h-2q-42 0 -67.5 23t-25.5 63v4v3 q0 36 22.5 58t70.5 26q48 2 85 14t70 43.5t62.5 87.5t61.5 149l6 16q-36 16 -72 50t-63 96v2l-316 745q-8 16 -9 38z" />
<glyph unicode="z" horiz-adv-x="1129" d="M84 194q0 50 20.5 87t52.5 65l653 554q6 6 7 18q0 16 -18 16h-580q-42 0 -65 25.5t-23 61.5t23 62t65 26h584q43 0 82 -12t68.5 -37.5t46.5 -61.5t17 -82q0 -40 -19.5 -82.5t-61.5 -78.5l-640 -544q-9 -8 -9 -19q0 -17 19 -17h652q40 0 64 -25t24 -61t-24 -62.5 t-64 -26.5h-662q-41 0 -79 14t-67 39t-47.5 60.5t-18.5 80.5z" />
<glyph unicode="{" horiz-adv-x="727" d="M105 648q0 36 22 60t72 24q70 0 92 25q17 17 23 46.5t6 67.5q0 43 -6 91t-12 93q-6 52 -13 103t-7 100q0 62 15 119.5t57 99.5q74 78 218 77q44 0 68 -24t24 -60t-22 -60t-68 -24q-26 -2 -51.5 -9.5t-37.5 -24.5q-12 -16 -16 -38.5t-4 -49.5q0 -42 7 -89.5t13 -96.5 q12 -88 12 -158q0 -105 -26 -170.5t-79 -101.5q53 -36 79 -102.5t26 -172.5q0 -70 -12 -158q-6 -48 -13 -95.5t-7 -89.5q0 -28 4 -50t16 -39q12 -16 37.5 -24t51.5 -8q46 -2 68 -25t22 -59q0 -38 -24 -62.5t-68 -24.5q-144 0 -218 81q-42 42 -57 97.5t-15 119.5q0 48 7 98.5 t13 103.5q6 44 12 93t6 93q0 36 -6 65.5t-23 46.5q-23 25 -92 25q-49 0 -71.5 25.5t-22.5 61.5z" />
<glyph unicode="|" horiz-adv-x="564" d="M190 -175v1645q0 40 27.5 62t64.5 22q38 0 66 -22t28 -62v-1645q0 -40 -28 -62.5t-66 -22.5t-65 22.5t-27 62.5z" />
<glyph unicode="}" horiz-adv-x="727" d="M63 -175q0 36 22 59t69 25q26 0 51 7.5t38 24.5q12 17 16.5 39t4.5 50q0 42 -7.5 89.5t-13.5 95.5q-12 89 -13 158q0 105 26 172t80 103q-53 36 -79.5 101.5t-26.5 170.5q0 70 13 158q6 49 13.5 96.5t7.5 89.5q0 28 -4.5 49.5t-16.5 38.5t-38 24t-51 10q-46 0 -68.5 24.5 t-22.5 59.5q0 36 24.5 60t69.5 24q143 0 216 -77q42 -42 57 -99.5t15 -119.5q0 -49 -5 -100t-14 -103q-6 -45 -12.5 -93t-6.5 -91q0 -38 6.5 -67t23.5 -47q20 -25 92 -25q49 0 71 -24t22 -60t-22 -61.5t-71 -25.5q-72 0 -92 -25q-17 -17 -23.5 -47t-6.5 -65q0 -44 6.5 -93 t12.5 -93q9 -53 14 -103.5t5 -98.5q0 -63 -15 -119t-57 -98q-74 -81 -216 -81q-45 0 -69.5 24.5t-24.5 62.5z" />
<glyph unicode="~" horiz-adv-x="1218" d="M169 483q0 14 10 36l2 4q9 15 26 39t43 48t62 43.5t85 23.5h21q49 0 97 -17.5t127 -53.5h2q76 -36 108.5 -48t57.5 -12h13q38 4 63.5 31t43.5 57l2 6q19 32 60 31q20 0 35 -9q32 -23 32 -58q0 -21 -8 -36l-5 -5q-8 -14 -25 -38.5t-42 -49t-62 -43.5t-84 -23h-23 q-49 0 -96.5 17t-125.5 53l-4 2q-74 34 -106.5 46.5t-59.5 12.5h-11q-40 -4 -65.5 -31.5t-41.5 -57.5l-4 -4q-21 -34 -60 -34q-15 0 -35 11q-32 19 -32 59z" />
<glyph unicode="&#xa1;" horiz-adv-x="535" d="M169 -302v960q0 36 28.5 60.5t70.5 24.5t70.5 -24.5t28.5 -60.5v-960q0 -40 -28.5 -62t-70.5 -22t-70.5 22t-28.5 62zM169 990v50q0 40 28.5 62.5t70.5 22.5t70.5 -22.5t28.5 -62.5v-50q0 -40 -28.5 -62.5t-70.5 -22.5t-70.5 22.5t-28.5 62.5z" />
<glyph unicode="&#xa2;" horiz-adv-x="1174" d="M137 739q0 62 2 114t8 99q24 158 133.5 250.5t287.5 103.5v131q0 26 19 42.5t43 16.5q28 0 46 -17t18 -42v-133q139 -14 302 -89q53 -25 53 -80q0 -21 -11 -42q-12 -28 -33.5 -39.5t-46.5 -11.5q-24 0 -51 11q-114 54 -213 72v-775q99 20 213 72q26 13 51 13q57 0 80 -51 q11 -26 11 -44q0 -26 -15 -47t-38 -31q-80 -38 -155.5 -59.5t-146.5 -29.5v-133q0 -28 -18 -43.5t-46 -15.5q-25 0 -43.5 15.5t-18.5 43.5v129q-178 12 -287.5 105t-133.5 251q-6 47 -8 97.5t-2 116.5zM332 739q0 -49 1 -99t7 -94q26 -181 228 -200v783q-203 -17 -228 -201 q-6 -42 -7 -92.5t-1 -96.5z" />
<glyph unicode="&#xa3;" horiz-adv-x="1172" d="M84 765q0 28 18.5 46t44.5 18h96v318q0 77 23 140t67.5 109.5t110 73t151.5 26.5q101 0 178 -17t136 -38q30 -10 44.5 -34t14.5 -48q0 -11 -4 -32q-21 -61 -84 -61q-24 0 -43 8q-68 21 -125.5 33.5t-114.5 12.5q-78 0 -119 -47t-41 -132v-312h242q28 0 46 -18t18 -46 q0 -25 -18 -44t-46 -19h-242v-529h236q181 0 321 114q34 28 71 27q34 1 62 -23q26 -23 25 -63q0 -19 -7.5 -38t-19.5 -29q-89 -77 -201 -119t-245 -42h-487q-41 0 -66 25t-25 62q0 36 25 61t66 25h51v529h-96q-28 0 -45.5 19.5t-17.5 43.5z" />
<glyph unicode="&#xa4;" horiz-adv-x="1401" d="M147 260q0 18 18 40l131 137q-59 68 -92 152t-33 183q0 97 32.5 181.5t92.5 151.5l-131 137q-17 21 -18 40q0 26 22 45q21 14 42 15q26 0 47 -22l128 -132q68 48 148 73t168 25q89 0 168.5 -25t146.5 -73l128 132q21 21 47 22q18 0 42 -15q21 -19 22 -45q0 -18 -18 -40 l-131 -137q59 -68 92 -152t33 -181q0 -98 -32.5 -183t-92.5 -152l131 -137q17 -21 18 -40q0 -28 -22 -43q-21 -16 -42 -16l-2 2q-30 0 -45 18l-128 133q-68 -48 -147 -73.5t-168 -25.5q-88 0 -168.5 25.5t-147.5 73.5l-128 -133q-17 -18 -45 -18l-2 -2q-20 0 -42 16 q-21 15 -22 43zM365 772q0 -72 25 -134t71 -107.5t107.5 -70.5t133.5 -25q73 0 133.5 25t106 70.5t71 107.5t25.5 134q0 73 -25.5 133.5t-71 106t-106 70.5t-133.5 25q-72 0 -133.5 -25t-107.5 -70.5t-71 -106t-25 -133.5z" />
<glyph unicode="&#xa5;" horiz-adv-x="1320" d="M42 1399q0 36 26.5 63t72.5 27q36 0 59.5 -14.5t37.5 -35.5l340 -501q36 -50 52 -62.5t30 -12.5q15 0 31 12.5t52 62.5l342 501q14 21 36 35.5t58 14.5q47 0 73 -27t26 -63q0 -28 -14 -49l-348 -511q-4 -4 -9 -12h186q26 0 44.5 -18t18.5 -46q0 -26 -19 -44.5t-44 -18.5 h-334v-137h334q26 0 44.5 -19t18.5 -44q0 -28 -19 -45.5t-44 -17.5h-334v-363q0 -36 -28.5 -59t-70.5 -23t-70.5 23t-28.5 59v363h-333q-26 0 -44.5 18t-18.5 45q0 25 19 44t44 19h333v137h-333q-26 0 -44.5 19.5t-18.5 43.5q0 28 19 46t44 18h185q-4 8 -8 12l-348 511 q-15 21 -15 49z" />
<glyph unicode="&#xa6;" horiz-adv-x="522" d="M169 -175v553q0 40 27.5 62t65.5 22t65 -22t27 -62v-553q0 -40 -27 -62.5t-65 -22.5t-65.5 22.5t-27.5 62.5zM169 918v552q0 40 27.5 62t65.5 22t65 -22t27 -62v-552q0 -40 -27 -62.5t-65 -22.5t-65.5 22.5t-27.5 62.5z" />
<glyph unicode="&#xa7;" horiz-adv-x="1309" d="M127 688q0 80 43 159t114 147q-23 34 -35.5 73.5t-12.5 88.5q0 70 25.5 131t80.5 107.5t139 74t203 27.5q74 0 148.5 -11.5t141.5 -33.5q65 -23 66 -80q0 -10 -4 -27q-8 -28 -29.5 -45t-50.5 -17h-16t-18 4q-55 17 -120.5 30t-124.5 13q-135 0 -197 -45.5t-62 -123.5 q0 -74 70.5 -119t220.5 -75q135 -28 225.5 -65.5t148.5 -92.5q68 -65 84 -136.5t16 -123.5q0 -80 -43 -159t-115 -146q24 -34 36 -74t12 -89q0 -70 -25 -131t-79.5 -107.5t-139 -74t-203.5 -27.5q-74 0 -148.5 12t-141.5 33q-65 23 -66 80q0 10 4 28q8 28 29 44.5t51 16.5 h16.5t17.5 -4q55 -17 120.5 -30t123.5 -13q135 0 197.5 45.5t62.5 123.5q0 74 -70.5 119t-219.5 75q-135 28 -226.5 65.5t-147.5 92.5q-68 65 -84.5 135.5t-16.5 124.5zM312 688q0 -44 11 -80t45.5 -67.5t100 -57.5t173.5 -46q72 -15 136 -35t118 -50q49 42 75.5 93.5 t26.5 102.5q0 44 -12 80t-46.5 68t-98.5 57.5t-173 45.5q-72 15 -135.5 35t-119.5 50q-48 -42 -74.5 -93.5t-26.5 -102.5z" />
<glyph unicode="&#xa8;" horiz-adv-x="695" d="M72 1329q0 42 30.5 73t72.5 31t72.5 -31t30.5 -73q0 -45 -30.5 -75t-72.5 -30t-72.5 30t-30.5 75zM418 1329q0 42 30.5 73t72.5 31t72.5 -31t30.5 -73q0 -45 -30.5 -75t-72.5 -30t-72.5 30t-30.5 75z" />
<glyph unicode="&#xa9;" horiz-adv-x="1929" d="M147 648q0 169 64.5 318t175 261t260.5 176.5t319 64.5t318 -64.5t259.5 -176.5t175 -261t64.5 -318t-64.5 -319t-175 -261.5t-259.5 -176t-318 -64.5t-319 64.5t-260.5 176t-175 261.5t-64.5 319zM274 648q0 -143 55 -270t149 -221t219.5 -148.5t268.5 -54.5 q141 0 268 54.5t219.5 148.5t147.5 220.5t55 270.5q0 143 -55 269.5t-147.5 220.5t-219.5 149t-268 55q-143 0 -268.5 -55t-219.5 -149t-149 -220.5t-55 -269.5zM542 648q0 116 13 208q17 139 120.5 215t272.5 76q105 0 175.5 -17t126.5 -39q51 -19 52 -68q0 -15 -7 -33 q-11 -24 -30 -37t-41 -13q-21 0 -38 10q-53 18 -108 31t-130 13q-207 0 -227 -155q-4 -42 -7 -91.5t-3 -99.5q0 -53 3 -103t7 -92q19 -151 227 -151q76 0 130.5 13t107.5 31q14 8 36 8q23 0 43.5 -12.5t29.5 -35.5q6 -17 7 -32q0 -53 -52 -69q-56 -24 -126.5 -41t-175.5 -17 q-169 0 -272.5 76.5t-120.5 213.5q-6 46 -9.5 100.5t-3.5 110.5z" />
<glyph unicode="&#xaa;" horiz-adv-x="843" d="M63 952q0 48 13 86q30 97 107 143.5t216 46.5q42 0 94.5 -5.5t103.5 -16.5q-6 78 -42 108q-48 45 -144 45q-61 0 -102 -8.5t-100 -25.5q-21 -5 -32 -5q-52 0 -65 47q-4 8 -5 26q0 52 58 69q68 16 123.5 25t126.5 9q101 0 160 -27.5t93 -57.5q55 -52 73 -119.5t18 -158.5 v-99q0 -91 -18 -158.5t-73 -118.5q-34 -30 -93.5 -57t-161.5 -27q-93 0 -153.5 22t-99.5 53t-58.5 63.5t-25.5 55.5q-12 38 -13 85zM221 948q0 -57 42.5 -98.5t149.5 -41.5q92 0 142 44q24 18 35.5 56t11.5 123v42q-55 9 -106 14.5t-91 5.5q-95 0 -132 -28.5t-45 -64.5 q-7 -24 -7 -52z" />
<glyph unicode="&#xab;" horiz-adv-x="866" d="M63 555q0 24 7.5 45.5t18.5 41.5l240 379q23 36 63 36q19 0 39 -13q16 -10 26 -27t10 -34q0 -21 -14 -41l-238 -379q-4 -4 -4 -8t4 -9l238 -379q13 -19 14 -40q0 -17 -10 -34t-26 -28q-19 -12 -39 -12q-40 0 -63 36l-240 380q-11 18 -18.5 40t-7.5 46zM403 555 q0 49 25 87l240 379q11 16 28 26t34 10q21 0 40 -13q34 -20 33 -61q0 -19 -10 -41l-240 -379q0 -2 -1 -4t-1 -4q0 -6 2 -9l240 -379q10 -21 10 -40q0 -40 -33 -62q-18 -12 -40 -12q-16 0 -33.5 9.5t-28.5 26.5l-240 380q-25 38 -25 86z" />
<glyph unicode="&#xac;" horiz-adv-x="1292" d="M63 749q0 38 25.5 63t65.5 25h895q88 0 134.5 -47t46.5 -119v-293q0 -42 -28.5 -65.5t-68.5 -23.5q-42 0 -69.5 23.5t-27.5 65.5v282h-882q-40 0 -65.5 26.5t-25.5 62.5z" />
<glyph unicode="&#xad;" horiz-adv-x="855" d="M84 747q0 30 22.5 52t52.5 22h539q30 0 52 -22t22 -52q0 -32 -22 -53t-52 -21h-539q-30 0 -52.5 21t-22.5 53z" />
<glyph unicode="&#xae;" horiz-adv-x="1929" d="M147 648q0 169 64.5 318t175 261t260.5 176.5t319 64.5t318 -64.5t259.5 -176.5t175 -261t64.5 -318t-64.5 -319t-175 -261.5t-259.5 -176t-318 -64.5t-319 64.5t-260.5 176t-175 261.5t-64.5 319zM274 648q0 -143 55 -270t149 -221t219.5 -148.5t268.5 -54.5 q141 0 268 54.5t219.5 148.5t147.5 220.5t55 270.5q0 143 -55 269.5t-147.5 220.5t-219.5 149t-268 55q-143 0 -268.5 -55t-219.5 -149t-149 -220.5t-55 -269.5zM614 224v726q0 80 50.5 134.5t152.5 54.5h202q103 0 163 -29.5t92 -58.5q74 -75 74 -188q0 -46 -15 -93 t-49 -84.5t-88.5 -64t-132.5 -33.5q16 -10 31 -23.5t31 -30.5l225 -264q15 -17 15 -42q0 -30 -22.5 -55.5t-66.5 -25.5t-67 30l-315 367q-24 28 -37 36t-30 8h-44v-364q0 -32 -24.5 -54.5t-60.5 -22.5t-60 22.5t-24 54.5zM783 741h236q160 0 160 122q0 123 -160 122h-198 q-24 0 -31 -9.5t-7 -27.5v-207z" />
<glyph unicode="&#xaf;" horiz-adv-x="695" d="M74 1308q0 26 19 44.5t44 18.5h422q26 0 44.5 -19t18.5 -44q0 -28 -18.5 -46t-44.5 -18h-422q-26 0 -44.5 18t-18.5 46z" />
<glyph unicode="&#xb0;" horiz-adv-x="807" d="M63 1156q0 70 26.5 132t73 108.5t108.5 74t134 27.5q70 0 132 -27.5t108.5 -74t73 -108.5t26.5 -132t-26.5 -132t-73 -107.5t-108.5 -72.5t-132 -27q-72 0 -134 27t-108.5 72.5t-73 108t-26.5 131.5zM192 1156q0 -45 17 -82.5t45 -66.5t67 -45t84 -16q88 0 149.5 60.5 t61.5 149.5q0 44 -17 83t-45.5 67.5t-66.5 45.5t-82 17q-45 0 -84 -17t-67 -45.5t-45 -67.5t-17 -83z" />
<glyph unicode="&#xb1;" horiz-adv-x="1222" d="M63 84q0 -36 24.5 -60t63.5 -24h920q40 0 64.5 24t24.5 60q0 37 -24.5 61t-64.5 24h-920q-40 0 -64 -24t-24 -61zM63 765q0 36 24.5 60.5t63.5 24.5h368v333q0 37 27.5 61t65.5 24t65.5 -24t27.5 -61v-333h366q40 0 64.5 -24.5t24.5 -60.5t-24.5 -58.5t-64.5 -22.5h-366 v-334q0 -36 -27.5 -60t-65.5 -24t-65.5 24t-27.5 60v334h-368q-40 0 -64 23t-24 58z" />
<glyph unicode="&#xb2;" horiz-adv-x="721" d="M53 1006q0 26 10.5 51.5t31.5 43.5l30 28q23 20 69 62.5t135 122.5q48 45 79 75t49 52.5t25 38.5t7 32q0 36 -26 61.5t-100 25.5q-39 0 -78.5 -12.5t-79.5 -34.5q-21 -10 -42 -10q-47 0 -66 36q-10 21 -10 38q0 42 38 61q114 63 238 64q130 0 207.5 -62.5t77.5 -170.5 q0 -42 -15 -76.5t-42.5 -69.5t-64.5 -70.5t-83 -78.5q-74 -68 -113 -104t-58 -52q-24 -21 -27 -23q-2 -2 -2 -5q0 -6 4 -6h350q34 0 52.5 -20t18.5 -49q0 -30 -18.5 -51t-52.5 -21h-412q-42 0 -72.5 18t-44.5 48q-14 27 -15 58z" />
<glyph unicode="&#xb3;" horiz-adv-x="754" d="M63 1000q0 15 7 34q8 19 25 28t38 9q26 0 44 -10q36 -17 85.5 -31.5t95.5 -14.5q28 0 57.5 5t52.5 19t39 39t16 63q0 42 -19 66.5t-45 37.5t-53.5 17t-47.5 4h-56q-32 0 -53 21t-21 50q0 30 21 50t53 20h61q18 0 41.5 3t44 14t33.5 28.5t13 49.5q0 40 -27 68.5t-105 28.5 q-39 0 -77.5 -11.5t-78.5 -33.5q-10 -6 -22 -8t-22 -2q-47 0 -64 36q-10 21 -10 36q0 40 38 61q114 63 236 64q132 0 211.5 -64.5t79.5 -174.5q0 -59 -25 -97.5t-72 -62.5q57 -32 91 -82.5t34 -118.5q0 -122 -87.5 -195t-236.5 -73q-72 0 -140.5 20.5t-116.5 42.5 q-38 17 -38 64z" />
<glyph unicode="&#xb4;" horiz-adv-x="695" d="M226 1256q0 32 23 50l210 196q21 16 48 17q30 0 50 -21q17 -24 17 -47q0 -32 -21 -50l-211 -197q-23 -16 -46 -16q-32 0 -51 21q-18 19 -19 47z" />
<glyph unicode="&#xb5;" horiz-adv-x="1284" d="M190 -304v1342q0 36 28.5 56.5t68.5 20.5q41 0 69 -21t28 -56v-553q0 -112 14.5 -168.5t52.5 -90.5q72 -65 207 -65q139 0 207 65q36 34 51.5 92t15.5 167v553q0 36 27.5 56.5t69.5 20.5q40 0 69 -21t29 -56v-553q0 -127 -26 -219.5t-99 -164.5q-120 -116 -327 -115 q-175 0 -291 86v-376q0 -36 -28.5 -58t-68.5 -22t-68.5 22t-28.5 58z" />
<glyph unicode="&#xb6;" horiz-adv-x="1226" d="M84 1063q0 101 36.5 178t98 131t143 81.5t172.5 27.5h358q70 0 108 -39t38 -107v-1510q0 -36 -26.5 -60.5t-65.5 -24.5t-66.5 24.5t-27.5 60.5v1487h-118v-1487q0 -36 -26 -60.5t-66 -24.5q-38 0 -66 24.5t-28 60.5v821h-14q-91 0 -172.5 27t-143 81t-98 132t-36.5 177z " />
<glyph unicode="&#xb7;" horiz-adv-x="381" d="M84 555q0 55 30.5 84t77.5 29q46 0 76 -29t30 -84q0 -54 -30 -84t-76 -30q-47 0 -77.5 29.5t-30.5 84.5z" />
<glyph unicode="&#xb8;" horiz-adv-x="695" d="M165 -310q0 28 15.5 43.5t40.5 15.5q26 0 54.5 -6.5t60.5 -6.5q23 0 47 7.5t24 37.5q0 20 -15.5 31t-36.5 14t-44.5 2t-38.5 -1q-24 0 -40.5 13t-16.5 37q0 13 8.5 36.5t19 50t21 50.5t14.5 36q17 41 60 41q26 0 44.5 -18t18.5 -43q0 -24 -14 -54.5t-22 -51.5 q72 0 120.5 -33.5t48.5 -111.5q0 -43 -17 -72t-44.5 -50.5t-62 -31t-72.5 -9.5q-19 0 -48.5 1t-57 8.5t-47.5 22t-20 42.5z" />
<glyph unicode="&#xb9;" horiz-adv-x="600" d="M63 1626q0 55 62 68l189 43q8 2 15 3t15 1q36 0 67 -22q42 -30 42 -80v-699q0 -29 -22.5 -48t-54.5 -19q-34 0 -57 19.5t-23 47.5v646l-135 -30q-9 -2 -26 -2q-24 0 -43.5 12t-26.5 42q-2 6 -2 18z" />
<glyph unicode="&#xba;" horiz-adv-x="849" d="M74 1085q0 46 2 81.5t6 69.5q17 123 107.5 191.5t234.5 68.5q146 0 236.5 -68.5t106.5 -191.5q4 -34 7 -69.5t3 -81.5q0 -36 -1 -76.5t-9 -76.5q-16 -122 -106.5 -190.5t-236.5 -68.5q-143 0 -234 68.5t-108 190.5q-4 34 -6 70t-2 83zM232 1085q0 -34 1 -70.5t5 -64.5 q10 -68 57 -104t129 -36q85 0 131.5 36t56.5 104q6 56 6 135q0 32 -1 67.5t-5 64.5q-19 142 -188 142q-166 0 -186 -142q-4 -29 -5 -64.5t-1 -67.5z" />
<glyph unicode="&#xbb;" horiz-adv-x="866" d="M63 127q0 18 11 40l240 379q2 2 2 9q0 6 -2 8l-240 379q-10 21 -11 41q0 40 34 61q18 13 40 13q40 0 64 -36l238 -379q28 -43 28 -87q0 -46 -28 -86l-238 -380q-24 -36 -64 -36q-21 0 -40 12q-34 20 -34 62zM403 127q0 23 10 40l241 379q0 2 1 4.5t1 4.5t-1 4t-1 4 l-241 379q-10 15 -10 41q0 16 8.5 33.5t25.5 27.5q18 13 38 13q40 0 63 -36l241 -379q10 -19 17 -41t7 -46t-7 -46t-17 -40l-241 -380q-24 -36 -63 -36q-19 0 -38 12q-17 10 -25.5 27t-8.5 35z" />
<glyph unicode="&#xbc;" horiz-adv-x="1767" d="M147 1383q0 24 15 43t45 25l192 40q16 5 27 5q34 0 69 -21q43 -32 43 -80v-699q0 -30 -23.5 -48t-57.5 -18q-32 0 -54.5 18t-22.5 48v646l-135 -30q-8 -2 -26 -2q-25 0 -43.5 11.5t-26.5 41.5q-2 6 -2 20zM388 46q0 24 13 43l829 1373q20 34 61 34q36 0 53 -18t17 -43 q0 -24 -13 -42l-827 -1374q-21 -33 -62 -33q-36 0 -53.5 17.5t-17.5 42.5zM922 251q0 -44 31.5 -81t88.5 -37h244v-83q0 -29 23.5 -46.5t57.5 -17.5q32 0 55 17.5t23 46.5v83h30q34 0 54.5 20t20.5 50t-20.5 49.5t-54.5 19.5h-30v219q0 30 -23 51t-55 21q-34 0 -57.5 -21 t-23.5 -51v-219h-191l264 475q8 14 8 36q0 28 -19 47.5t-62 19.5q-48 0 -69 -38l-281 -504q-14 -30 -14 -57z" />
<glyph unicode="&#xbd;" horiz-adv-x="1767" d="M123 1383q0 24 14 43t44 25l192 40q8 3 14.5 4t15.5 1q36 0 68 -21q42 -30 42 -80v-699q0 -30 -23 -48t-55 -18q-34 0 -57.5 18t-23.5 48v646l-135 -30q-8 -2 -25 -2q-24 0 -43.5 11.5t-25.5 41.5q-2 6 -2 20zM365 46q0 24 13 43l826 1373q21 34 62 34q36 0 53.5 -18 t17.5 -43q0 -24 -12 -42l-830 -1374q-20 -33 -60 -33q-36 0 -53 17.5t-17 42.5zM1023 125q0 25 9.5 50.5t32.5 43.5l30 28q24 21 69 63t134 123q48 44 79.5 74.5t49.5 52.5t25.5 38t7.5 32q0 36 -26.5 61.5t-102.5 25.5q-38 0 -78 -12.5t-78 -33.5q-26 -11 -42 -11 q-21 0 -39.5 9.5t-28.5 26.5q-8 17 -8 38q0 43 38 61q114 63 236 64q133 0 210 -62.5t77 -170.5q0 -42 -15 -76.5t-42 -69.5t-65.5 -69.5t-84.5 -76.5q-74 -68 -112.5 -105t-58.5 -54q-24 -21 -27 -24q-2 -2 -2 -4q0 -6 6 -6h349q34 0 53.5 -20t19.5 -49q0 -30 -19.5 -51 t-53.5 -21h-410q-87 0 -120 65q-12 28 -13 60z" />
<glyph unicode="&#xbe;" horiz-adv-x="1767" d="M147 755q0 -42 38 -63q47 -24 116.5 -43t139.5 -19q147 0 235.5 72.5t88.5 193.5q0 68 -33.5 118.5t-91.5 82.5q99 48 99 163q0 107 -79.5 171.5t-214.5 64.5q-121 0 -236 -61q-36 -21 -36 -64q0 -19 8 -36q21 -36 64 -35q21 0 46 12q39 21 78.5 33t75.5 12 q80 0 107.5 -29.5t27.5 -67.5q0 -32 -13.5 -51t-34.5 -28.5t-44 -13t-43 -3.5l-2 -2l-2 2h-55q-34 0 -55 -20.5t-21 -50.5t21 -51t55 -21h55q18 0 47 -4.5t55.5 -17t45.5 -37t19 -66.5q0 -38 -16 -63t-39.5 -38.5t-53.5 -19t-58 -5.5q-44 0 -93.5 15.5t-85.5 33.5 q-26 10 -45 10q-46 0 -63 -40q-6 -19 -7 -34zM462 46q0 24 13 43l829 1373q21 34 61 34q36 0 53 -18t17 -43q0 -24 -14 -42l-829 -1374q-20 -33 -61 -33q-36 0 -52.5 17.5t-16.5 42.5zM996 251q0 -44 30.5 -81t88.5 -37h246v-83q0 -29 22 -46.5t56 -17.5t57 17.5t23 46.5v83 h27q34 0 55 20t21 50t-21 49.5t-55 19.5h-27v219q0 30 -23 51t-57 21t-56 -21t-22 -51v-219h-194l264 475q10 16 10 36q0 28 -20 47.5t-60 19.5q-53 0 -70 -38l-281 -504q-14 -24 -14 -57z" />
<glyph unicode="&#xbf;" horiz-adv-x="978" d="M105 -46q0 62 18 113t53 99.5t86.5 98t117.5 108.5q59 50 83 115t24 164q0 42 28.5 66.5t70.5 24.5t71 -24.5t29 -66.5q0 -135 -40 -232.5t-127 -174.5q-63 -57 -104.5 -97.5t-67 -73t-34.5 -60.5t-9 -60q0 -45 19 -75t48.5 -49.5t67.5 -28t76 -8.5q68 0 122.5 19 t103.5 49q27 14 60 14q24 0 45 -8t34 -30q14 -30 14 -52q0 -53 -42 -79q-74 -44 -159 -68t-178 -24q-91 0 -166 25t-128.5 69.5t-84.5 106.5t-31 139zM487 990v50q0 40 28.5 62.5t70.5 22.5t71 -22.5t29 -62.5v-50q0 -40 -29 -62.5t-71 -22.5t-70.5 22.5t-28.5 62.5z" />
<glyph unicode="&#xc0;" horiz-adv-x="1256" d="M42 74q0 -38 27.5 -60t69.5 -22q38 0 64.5 17t36.5 50l116 380h544l115 -380q23 -68 100 -67q43 0 71.5 22t28.5 60q0 13 -6 29l-376 1241q-18 61 -69 103t-136 42q-86 0 -136.5 -42t-67.5 -103l-378 -1241q-4 -21 -4 -29zM411 620l205 675q6 12 12 13q6 0 12 -13 l206 -675h-435zM441 1822q0 28 16 47q21 21 52 21q26 0 46 -16l210 -197q24 -19 24 -51q0 -27 -19 -46q-19 -22 -51 -22q-24 0 -46 18l-211 196q-20 18 -21 50z" />
<glyph unicode="&#xc1;" horiz-adv-x="1256" d="M42 74q0 8 4 29l378 1241q17 61 67.5 103t136.5 42q85 0 136 -42t69 -103l376 -1241q6 -16 6 -29q0 -38 -28.5 -60t-71.5 -22q-78 0 -100 67l-115 380h-544l-116 -380q-10 -34 -36.5 -50.5t-64.5 -16.5q-42 0 -69.5 22t-27.5 60zM411 620h435l-206 675q-4 12 -12 13 q-6 0 -12 -13zM465 1626q0 32 20 51l213 197q21 16 47 16q30 0 50 -21q17 -23 17 -47q0 -32 -21 -50l-213 -196q-21 -18 -47 -18q-29 0 -48 22q-18 19 -18 46z" />
<glyph unicode="&#xc2;" horiz-adv-x="1256" d="M42 74q0 -38 27.5 -60t69.5 -22q38 0 64.5 17t36.5 50l116 380h544l115 -380q23 -68 100 -67q43 0 71.5 22t28.5 60q0 13 -6 29l-376 1241q-18 61 -69 103t-136 42q-86 0 -136.5 -42t-67.5 -103l-378 -1241q-4 -21 -4 -29zM369 1633q0 27 19 46l150 150q40 36 90 35 q53 0 89 -35l152 -150q19 -19 19 -46q0 -26 -19 -45q-16 -18 -44 -18q-26 0 -44 18l-153 151l-151 -151q-19 -18 -44 -18q-28 0 -47 18q-16 21 -17 45zM411 620l205 675q6 12 12 13q6 0 12 -13l206 -675h-435z" />
<glyph unicode="&#xc3;" horiz-adv-x="1256" d="M42 74q0 -38 27.5 -60t69.5 -22q38 0 64.5 17t36.5 50l116 380h544l115 -380q23 -68 100 -67q43 0 71.5 22t28.5 60q0 13 -6 29l-376 1241q-18 61 -69 103t-136 42q-86 0 -136.5 -42t-67.5 -103l-378 -1241q-4 -21 -4 -29zM310 1656q0 13 6 29q30 61 73.5 107t117.5 46 q42 0 77.5 -20.5t65 -43.5t55 -43t44.5 -20q26 0 39 18t25 40t26.5 41t44.5 19q25 0 44.5 -19t19.5 -45q0 -14 -8 -28q-29 -61 -73 -107t-118 -46q-42 0 -77 20t-65.5 43.5t-56 43.5t-43.5 20q-26 0 -40 -19t-24 -41.5t-26 -40.5t-44 -18t-45.5 19t-17.5 45zM411 620 l205 675q6 12 12 13q6 0 12 -13l206 -675h-435z" />
<glyph unicode="&#xc4;" horiz-adv-x="1256" d="M42 74q0 -38 27.5 -60t69.5 -22q38 0 64.5 17t36.5 50l116 380h544l115 -380q23 -68 100 -67q43 0 71.5 22t28.5 60q0 13 -6 29l-376 1241q-18 61 -69 103t-136 42q-86 0 -136.5 -42t-67.5 -103l-378 -1241q-4 -21 -4 -29zM352 1701q0 42 30.5 72.5t72.5 30.5t73 -30.5 t31 -72.5q0 -45 -31 -76t-73 -31t-72.5 31t-30.5 76zM411 620l205 675q6 12 12 13q6 0 12 -13l206 -675h-435zM698 1701q0 42 30.5 72.5t72.5 30.5q43 0 73.5 -30.5t30.5 -72.5q0 -45 -30.5 -76t-73.5 -31q-42 0 -72.5 31t-30.5 76z" />
<glyph unicode="&#xc5;" horiz-adv-x="1256" d="M42 74q0 -38 27.5 -60t69.5 -22q38 0 64.5 17t36.5 50l116 380h544l115 -380q23 -68 100 -67q43 0 71.5 22t28.5 60q0 13 -6 29l-376 1241q-18 61 -69 103t-136 42q-86 0 -136.5 -42t-67.5 -103l-378 -1241q-4 -21 -4 -29zM411 620l205 675q6 12 12 13q6 0 12 -13 l206 -675h-435zM439 1751q0 78 53.5 131.5t135.5 53.5q83 0 137 -53.5t54 -131.5t-54 -132.5t-137 -54.5q-82 0 -135.5 54.5t-53.5 132.5zM534 1751q0 -38 26 -65.5t68 -27.5q43 0 69 27.5t26 65.5t-26 65.5t-69 27.5q-42 0 -68 -27.5t-26 -65.5z" />
<glyph unicode="&#xc6;" horiz-adv-x="2146" d="M42 82q0 21 11 43l670 1232q34 58 88 91t127 33h934q42 0 66 -26.5t24 -64.5t-24 -64t-66 -26h-731l40 -444h639q42 0 66.5 -26.5t24.5 -64.5t-24.5 -64t-66.5 -26h-622l46 -494h676q42 0 66.5 -26t24.5 -64t-24.5 -64.5t-66.5 -26.5h-674q-82 0 -136.5 48.5t-63.5 118.5 l-25 272h-568l-215 -397q-28 -50 -93 -50q-50 0 -76.5 28t-26.5 62zM553 620h451l-62 662q0 13 -12 13q-8 0 -16 -13z" />
<glyph unicode="&#xc7;" horiz-adv-x="1347" d="M147 741q0 86 5 169.5t13 154.5q23 205 166.5 318t379.5 113q147 0 249.5 -26.5t182.5 -60.5q26 -10 41.5 -33.5t15.5 -52.5q0 -21 -8 -39q-21 -54 -81 -54q-29 0 -50 10q-76 32 -156 53t-194 21q-99 0 -164.5 -24t-104.5 -63t-57 -86.5t-25 -94.5q-6 -68 -10 -146.5 t-4 -158.5q0 -83 4 -161t10 -145q32 -268 351 -268q114 0 194 21t156 52q21 10 48 11q30 0 51 -13.5t32 -41.5q8 -17 8 -37q0 -30 -15.5 -53.5t-41.5 -33.5q-72 -30 -156 -54t-204 -30l-26 -64q85 0 128 -39t43 -106q0 -63 -50.5 -113t-145.5 -50q-36 0 -63 3t-59 12 q-24 6 -38.5 20.5t-14.5 38.5q0 4 1 7t1 7q4 24 20 34.5t37 10.5q10 0 16 -2q24 -5 43 -8t55 -3t53.5 13t17.5 32q0 18 -15.5 31t-53.5 17h-19q-11 0 -20 -1t-20 -1h-7q-27 0 -41.5 15t-14.5 35q0 9 4 26l34 85q-209 16 -335 127t-148 300q-8 72 -13 154.5t-5 171.5z" />
<glyph unicode="&#xc8;" horiz-adv-x="1315" d="M190 175q0 -74 50.5 -124.5t130.5 -50.5h718q42 0 66 26.5t24 64.5t-24 64t-66 26h-701v494h633q42 0 66 26.5t24 63.5q0 38 -24 64.5t-66 26.5h-633v380q0 28 17 46t46 18h620q42 0 66.5 26t24.5 64q0 39 -24.5 65t-66.5 26h-628q-55 0 -101 -19t-80 -53t-53 -78.5 t-19 -94.5v-1061zM493 1822q0 24 20 47q18 21 50 21q24 0 47 -16l211 -197q21 -19 21 -51q0 -30 -17 -46q-21 -21 -50 -22q-26 0 -47 18l-211 196q-24 18 -24 50z" />
<glyph unicode="&#xc9;" horiz-adv-x="1315" d="M190 175v1061q0 50 19 94.5t53 78.5t80 53t101 19h628q42 0 66.5 -26.5t24.5 -64.5t-24.5 -64t-66.5 -26h-620q-30 0 -46.5 -18t-16.5 -46v-380h633q42 0 66 -26.5t24 -64.5t-24 -64t-66 -26h-633v-494h701q42 0 66 -26t24 -64t-24 -64.5t-66 -26.5h-718q-81 0 -131 50.5 t-50 124.5zM540 1626q0 32 21 51l214 197q20 16 46 16q30 0 50 -21q17 -23 17 -47q0 -32 -21 -50l-213 -196q-21 -18 -46 -18q-30 0 -51 22q-16 21 -17 46z" />
<glyph unicode="&#xca;" horiz-adv-x="1315" d="M190 175q0 -74 50.5 -124.5t130.5 -50.5h718q42 0 66 26.5t24 64.5t-24 64t-66 26h-701v494h633q42 0 66 26.5t24 63.5q0 38 -24 64.5t-66 26.5h-633v380q0 28 17 46t46 18h620q42 0 66.5 26t24.5 64q0 39 -24.5 65t-66.5 26h-628q-55 0 -101 -19t-80 -53t-53 -78.5 t-19 -94.5v-1061zM439 1633q0 27 18 46l153 150q40 36 90 35q49 0 89 -35l151 -150q19 -19 20 -46q0 -26 -20 -45q-18 -18 -44 -18t-44 18l-152 151h-2l-152 -151q-17 -18 -44 -18q-26 0 -45 18q-18 19 -18 45z" />
<glyph unicode="&#xcb;" horiz-adv-x="1315" d="M190 175q0 -74 50.5 -124.5t130.5 -50.5h718q42 0 66 26.5t24 64.5t-24 64t-66 26h-701v494h633q42 0 66 26.5t24 63.5q0 38 -24 64.5t-66 26.5h-633v380q0 28 17 46t46 18h620q42 0 66.5 26t24.5 64q0 39 -24.5 65t-66.5 26h-628q-55 0 -101 -19t-80 -53t-53 -78.5 t-19 -94.5v-1061zM428 1701q0 42 30.5 72.5t75.5 30.5q42 0 72.5 -30.5t30.5 -72.5q0 -45 -30.5 -76t-72.5 -31q-45 0 -75.5 31t-30.5 76zM775 1701q0 42 30 72.5t73 30.5q44 0 74.5 -30.5t30.5 -72.5q0 -45 -30.5 -76t-74.5 -31q-43 0 -73 31t-30 76z" />
<glyph unicode="&#xcc;" horiz-adv-x="577" d="M40 1822q0 24 17 47q20 21 50 21q26 0 47 -16l213 -197q20 -21 21 -51q0 -27 -19 -46q-19 -22 -51 -22q-23 0 -46 18l-211 196q-21 18 -21 50zM190 74v1333q0 36 28.5 59t70.5 23q43 0 71 -23t28 -59v-1333q0 -36 -28 -59t-71 -23q-42 0 -70.5 23t-28.5 59z" />
<glyph unicode="&#xcd;" horiz-adv-x="577" d="M190 74q0 -36 28.5 -59t70.5 -23q43 0 71 23t28 59v1333q0 36 -28 59t-71 23q-42 0 -70.5 -23t-28.5 -59v-1333zM190 1626q0 30 21 51l213 197q21 16 47 16q30 0 50 -21q17 -23 17 -47q0 -32 -21 -50l-211 -196q-23 -18 -46 -18q-32 0 -51 22q-18 19 -19 46z" />
<glyph unicode="&#xce;" horiz-adv-x="577" d="M30 1633q0 27 18 46l153 150q36 36 88 35q53 0 89 -35l151 -150q19 -19 19 -46q0 -24 -17 -45q-18 -18 -46 -18q-26 0 -44 18l-152 151l-152 -151q-19 -18 -44 -18q-28 0 -47 18q-16 21 -16 45zM190 74v1333q0 36 28.5 59t70.5 23q43 0 71 -23t28 -59v-1333 q0 -36 -28 -59t-71 -23q-42 0 -70.5 23t-28.5 59z" />
<glyph unicode="&#xcf;" horiz-adv-x="577" d="M12 1701q0 42 31 72.5t73 30.5q43 0 73 -30.5t30 -72.5q0 -45 -30 -76t-73 -31q-42 0 -73 31t-31 76zM190 74v1333q0 36 28.5 59t70.5 23q43 0 71 -23t28 -59v-1333q0 -36 -28 -59t-71 -23q-42 0 -70.5 23t-28.5 59zM358 1701q0 42 31 72.5t73 30.5q43 0 73 -30.5 t30 -72.5q0 -45 -30.5 -76t-72.5 -31t-73 31t-31 76z" />
<glyph unicode="&#xd0;" horiz-adv-x="1421" d="M44 765q0 30 20 50t50 20h76v471q0 74 49.5 124.5t129.5 50.5h313q257 0 407 -129q65 -54 105 -128.5t56 -162.5q11 -74 17.5 -151t6.5 -169q0 -93 -6 -170.5t-18 -150.5q-16 -88 -56 -162.5t-105 -128.5q-155 -129 -405 -129h-239q-55 0 -102 19t-81 52.5t-53 78 t-19 95.5v453h-76q-30 0 -50 19t-20 48zM388 245q0 -63 61 -64h233q101 0 168.5 24.5t110.5 62.5t64 85.5t30 93.5q10 68 15 137.5t5 156.5q0 86 -5 155.5t-15 137.5q-9 46 -30 93.5t-64 85t-110.5 62.5t-168.5 25h-294v-465h204q30 0 49 -20t19 -50t-19 -48.5t-49 -18.5 h-204v-453z" />
<glyph unicode="&#xd1;" horiz-adv-x="1495" d="M190 74v1215q0 82 56 141t153 59q74 0 124.5 -37t73.5 -91l488 -1178q4 -10 12 -10q10 0 10 14v1220q0 36 28.5 58t70.5 22t71 -22t29 -58v-1215q0 -83 -56 -141.5t-153 -58.5q-74 0 -124.5 35.5t-74.5 93.5l-487 1177q-4 10 -12 10q-11 0 -11 -17v-1217q0 -36 -28 -59 t-71 -23q-42 0 -70.5 23t-28.5 59zM428 1656q0 13 7 29q30 61 73 107t116 46q42 0 78.5 -20.5t66.5 -43.5t54.5 -43t43.5 -20q26 0 39.5 18t24.5 40t26 41t45 19q26 0 44.5 -19t18.5 -45q0 -14 -6 -28q-30 -61 -73 -107t-117 -46q-42 0 -78 20t-66.5 43.5t-54.5 43.5t-44 20 q-26 0 -39 -19t-24.5 -41.5t-27.5 -40.5t-44 -18q-27 0 -45 19t-18 45z" />
<glyph unicode="&#xd2;" horiz-adv-x="1421" d="M147 741q0 86 5 169.5t13 154.5q23 205 166.5 318t379.5 113t379.5 -113t167.5 -318q8 -72 12 -155t4 -169q0 -87 -4 -170.5t-12 -155.5q-24 -205 -167.5 -317t-379.5 -112t-380 112.5t-166 316.5q-8 72 -13 155.5t-5 170.5zM346 741q0 -83 4 -161t10 -145 q32 -268 351 -268q318 0 350 268q6 68 10 145.5t4 160.5q0 82 -4 159.5t-10 145.5q-32 268 -350 268q-319 0 -351 -268q-6 -68 -10 -145.5t-4 -159.5zM502 1822q0 24 19 47q19 21 51 21q23 0 46 -16l211 -197q21 -19 21 -51q0 -30 -17 -46q-20 -21 -50 -22q-26 0 -47 18 l-211 196q-23 18 -23 50z" />
<glyph unicode="&#xd3;" horiz-adv-x="1421" d="M147 741q0 -87 5 -170.5t13 -155.5q23 -205 166.5 -317t379.5 -112t379.5 112.5t167.5 316.5q8 72 12 155.5t4 170.5q0 86 -4 169.5t-12 154.5q-24 205 -167 318t-380 113q-236 0 -380 -113t-166 -318q-8 -72 -13 -155t-5 -169zM346 741q0 82 4 159.5t10 145.5 q32 268 351 268q318 0 350 -268q6 -68 10 -145.5t4 -159.5q0 -83 -4 -161t-10 -145q-32 -268 -350 -268q-319 0 -351 268q-6 68 -10 145.5t-4 160.5zM565 1626q0 32 21 51l211 197q23 16 47 16q32 0 50 -21q19 -23 20 -47q0 -32 -24 -50l-211 -196q-21 -17 -47 -18 q-29 0 -50 22q-17 16 -17 46z" />
<glyph unicode="&#xd4;" horiz-adv-x="1421" d="M147 741q0 86 5 169.5t13 154.5q23 205 166.5 318t379.5 113t379.5 -113t167.5 -318q8 -72 12 -155t4 -169q0 -87 -4 -170.5t-12 -155.5q-24 -205 -167.5 -317t-379.5 -112t-380 112.5t-166 316.5q-8 72 -13 155.5t-5 170.5zM346 741q0 -83 4 -161t10 -145 q32 -268 351 -268q318 0 350 268q6 68 10 145.5t4 160.5q0 82 -4 159.5t-10 145.5q-32 268 -350 268q-319 0 -351 -268q-6 -68 -10 -145.5t-4 -159.5zM451 1633q0 27 20 46l151 150q36 36 89 35q52 0 88 -35l153 -150q18 -19 18 -46q0 -24 -16 -45q-19 -18 -47 -18 q-25 0 -44 18l-152 151l-152 -151q-18 -18 -44 -18q-28 0 -46 18q-17 21 -18 45z" />
<glyph unicode="&#xd5;" horiz-adv-x="1421" d="M147 741q0 86 5 169.5t13 154.5q23 205 166.5 318t379.5 113t379.5 -113t167.5 -318q8 -72 12 -155t4 -169q0 -87 -4 -170.5t-12 -155.5q-24 -205 -167.5 -317t-379.5 -112t-380 112.5t-166 316.5q-8 72 -13 155.5t-5 170.5zM346 741q0 -83 4 -161t10 -145 q32 -268 351 -268q318 0 350 268q6 68 10 145.5t4 160.5q0 82 -4 159.5t-10 145.5q-32 268 -350 268q-319 0 -351 -268q-6 -68 -10 -145.5t-4 -159.5zM392 1656q0 13 7 29q29 61 72.5 107t116.5 46q42 0 78 -20.5t66.5 -43.5t55 -43t43.5 -20q26 0 39.5 18t25 40t26 41 t44.5 19q26 0 44.5 -19t18.5 -45q0 -16 -6 -28q-30 -61 -73 -107t-117 -46q-42 0 -78 20t-66.5 43.5t-54.5 43.5t-44 20q-26 0 -39 -19t-24.5 -41.5t-27.5 -40.5t-44 -18q-25 0 -44 19t-19 45z" />
<glyph unicode="&#xd6;" horiz-adv-x="1421" d="M147 741q0 86 5 169.5t13 154.5q23 205 166.5 318t379.5 113t379.5 -113t167.5 -318q8 -72 12 -155t4 -169q0 -87 -4 -170.5t-12 -155.5q-24 -205 -167.5 -317t-379.5 -112t-380 112.5t-166 316.5q-8 72 -13 155.5t-5 170.5zM346 741q0 -83 4 -161t10 -145 q32 -268 351 -268q318 0 350 268q6 68 10 145.5t4 160.5q0 82 -4 159.5t-10 145.5q-32 268 -350 268q-319 0 -351 -268q-6 -68 -10 -145.5t-4 -159.5zM435 1701q0 42 30 72.5t73 30.5q42 0 73 -30.5t31 -72.5q0 -45 -31 -76t-73 -31q-43 0 -73 31t-30 76zM781 1701 q0 42 30.5 72.5t72.5 30.5t72.5 -30.5t30.5 -72.5q0 -45 -30.5 -76t-72.5 -31t-72.5 31t-30.5 76z" />
<glyph unicode="&#xd7;" horiz-adv-x="1222" d="M59 70q0 34 25 63l401 422l-401 421q-25 28 -25 64q0 34 23 59.5t61 25.5q30 0 47 -8t34 -26l384 -405l384 405q16 18 33 26t46 8q38 0 61.5 -26t23.5 -59q0 -36 -25 -64l-401 -421l401 -422q26 -30 25 -63q0 -34 -23.5 -59t-61.5 -25q-30 0 -44.5 5t-34.5 28l-384 405 l-384 -405q-17 -19 -34 -26t-47 -7q-38 0 -61 25t-23 59z" />
<glyph unicode="&#xd8;" horiz-adv-x="1425" d="M145 -10q0 18 12 36l101 151q-77 101 -91 238q-8 72 -13 155.5t-5 170.5q0 86 5 169.5t13 154.5q24 205 167 318t379 113q221 0 362 -103l89 132q18 30 53 29q19 0 37 -10q27 -21 26 -53q0 -18 -10 -36l-101 -151q76 -101 91 -239q8 -72 12 -155t4 -169q0 -87 -4 -170.5 t-12 -155.5q-24 -205 -167 -317t-380 -112q-220 0 -363 101l-88 -133q-21 -28 -53 -28q-18 0 -36 11q-28 21 -28 53zM348 741q0 -83 4 -160.5t11 -145.5q4 -21 8.5 -40t8.5 -37l590 880q-88 76 -257 76q-319 0 -350 -268q-7 -68 -11 -145.5t-4 -159.5zM455 243 q89 -76 258 -76q318 0 350 268q6 68 10.5 145.5t4.5 160.5q0 82 -4.5 159.5t-10.5 145.5q-4 21 -7 40t-10 37z" />
<glyph unicode="&#xd9;" horiz-adv-x="1442" d="M169 578v829q0 40 31.5 61t67.5 21t67.5 -21t31.5 -61v-805q0 -43 2 -84t7 -83q8 -75 37.5 -126t75 -83t104.5 -45.5t128 -13.5q70 0 129 13.5t104.5 45.5t75 83t37.5 126q6 46 7 90.5t1 92.5v789q0 40 32 61t68 21t67.5 -21t31.5 -61v-803q0 -49 -2 -95.5t-6 -93.5 q-12 -112 -60 -192t-121 -133.5t-166 -78.5t-198 -25t-197.5 25t-166 78.5t-120.5 134t-60 191.5q-4 40 -6 80.5t-2 82.5zM502 1822q0 24 17 47q21 21 51 21q25 0 46 -16l213 -197q21 -19 21 -51q0 -27 -19 -46q-18 -21 -48 -22q-26 0 -47 18l-213 196q-20 18 -21 50z" />
<glyph unicode="&#xda;" horiz-adv-x="1442" d="M169 578q0 -42 2 -82.5t6 -80.5q13 -112 60 -192t120.5 -133.5t166 -78.5t197.5 -25t198 25t166 78.5t121 134t60 191.5q4 46 6 93t2 96v803q0 40 -31.5 61t-67.5 21t-68 -21t-32 -61v-789q0 -48 -1 -92.5t-7 -90.5q-8 -75 -37.5 -126t-75 -83t-104.5 -45.5t-129 -13.5 t-128.5 13.5t-104 45.5t-75 83t-37.5 126q-4 42 -6.5 83t-2.5 84v805q0 40 -31.5 61t-67.5 21t-67.5 -21t-31.5 -61v-829zM592 1626q0 32 22 51l213 197q21 16 46 16q30 0 51 -21q16 -23 16 -47q0 -32 -20 -50l-213 -196q-21 -17 -47 -18q-30 0 -48 22q-19 19 -20 46z" />
<glyph unicode="&#xdb;" horiz-adv-x="1442" d="M169 578v829q0 40 31.5 61t67.5 21t67.5 -21t31.5 -61v-805q0 -43 2 -84t7 -83q8 -75 37.5 -126t75 -83t104.5 -45.5t128 -13.5q70 0 129 13.5t104.5 45.5t75 83t37.5 126q6 46 7 90.5t1 92.5v789q0 40 32 61t68 21t67.5 -21t31.5 -61v-803q0 -49 -2 -95.5t-6 -93.5 q-12 -112 -60 -192t-121 -133.5t-166 -78.5t-198 -25t-197.5 25t-166 78.5t-120.5 134t-60 191.5q-4 40 -6 80.5t-2 82.5zM462 1633q0 27 19 46l151 150q36 36 89 35q53 0 89 -35l152 -150q19 -19 19 -46q0 -24 -17 -45q-18 -18 -46 -18q-26 0 -45 18l-152 151l-151 -151 q-19 -18 -45 -18q-28 0 -46 18q-17 21 -17 45z" />
<glyph unicode="&#xdc;" horiz-adv-x="1442" d="M169 578v829q0 40 31.5 61t67.5 21t67.5 -21t31.5 -61v-805q0 -43 2 -84t7 -83q8 -75 37.5 -126t75 -83t104.5 -45.5t128 -13.5q70 0 129 13.5t104.5 45.5t75 83t37.5 126q6 46 7 90.5t1 92.5v789q0 40 32 61t68 21t67.5 -21t31.5 -61v-803q0 -49 -2 -95.5t-6 -93.5 q-12 -112 -60 -192t-121 -133.5t-166 -78.5t-198 -25t-197.5 25t-166 78.5t-120.5 134t-60 191.5q-4 40 -6 80.5t-2 82.5zM445 1701q0 42 30.5 72.5t72.5 30.5t73 -30.5t31 -72.5q0 -45 -31 -76t-73 -31t-72.5 31t-30.5 76zM791 1701q0 42 30.5 72.5t72.5 30.5t73 -30.5 t31 -72.5q0 -45 -31 -76t-73 -31t-72.5 31t-30.5 76z" />
<glyph unicode="&#xdd;" horiz-adv-x="1298" d="M32 1399q0 36 26 63t73 27q36 0 59 -14.5t38 -35.5l340 -501q36 -50 51 -62.5t31 -12.5q14 0 30 12.5t52 62.5l341 501q15 21 37.5 35.5t58.5 14.5q46 0 72.5 -27t26.5 -63q0 -28 -14 -49l-349 -511q-34 -48 -72 -84t-84 -55v-626q0 -36 -28.5 -59t-70.5 -23t-70.5 23 t-28.5 59v626q-46 19 -84.5 55t-72.5 84l-348 511q-14 21 -14 49zM521 1626q0 32 23 51l211 197q21 16 46 16q32 0 51 -21q18 -23 19 -47q0 -32 -23 -50l-211 -196q-21 -18 -47 -18q-32 0 -50 22q-19 19 -19 46z" />
<glyph unicode="&#xde;" horiz-adv-x="1311" d="M190 74v1333q0 36 28.5 58t70.5 22q43 0 71 -22t28 -58v-260h367q109 0 194 -30t141.5 -85.5t86 -129t29.5 -161.5q0 -89 -29.5 -163t-86 -129t-141 -85t-194.5 -30h-367v-260q0 -36 -28 -59t-71 -23q-42 0 -70.5 23t-28.5 59zM388 515h367q107 0 180 51.5t73 174.5 q0 122 -72.5 173.5t-180.5 51.5h-367v-451z" />
<glyph unicode="&#xdf;" horiz-adv-x="1268" d="M190 82v967q0 126 23 220t99 168q65 61 144.5 89t185.5 28q84 0 159 -26t130.5 -70.5t87.5 -104.5t32 -129q0 -51 -14 -91t-35 -72t-46.5 -55t-46.5 -42q-36 -30 -47.5 -44.5t-11.5 -31.5t17 -31.5t65 -44.5q38 -26 77.5 -56t70.5 -68t53.5 -86.5t28.5 -108.5 q2 -12 2 -25v-25q0 -177 -122 -304q-68 -68 -159.5 -103.5t-198.5 -35.5h-114q-43 0 -67 25t-24 64q0 38 24 63t67 25h118q63 0 118 20t92 61q36 36 54 83t18 102v34q-6 54 -41 97.5t-106 87.5q-28 17 -57.5 38t-53.5 48t-40 61.5t-16 78.5q0 38 11.5 70t29.5 57t40 45 t42 37q40 34 58.5 59t18.5 68q0 65 -60 110t-154 45q-74 0 -116.5 -17.5t-72.5 -47.5q-42 -42 -55.5 -109.5t-13.5 -155.5v-967q0 -36 -27 -62t-70 -26q-42 0 -69.5 26t-27.5 62z" />
<glyph unicode="&#xe0;" horiz-adv-x="1197" d="M116 369q0 -61 17 -118q8 -30 33.5 -75t77.5 -87.5t137.5 -72.5t213.5 -30q218 0 343 115q79 72 101 164.5t22 219.5v139q0 127 -22 219.5t-101 164.5q-126 117 -343 117q-50 0 -91.5 -2.5t-81.5 -8t-81 -13.5t-88 -21q-32 -8 -51 -30.5t-19 -53.5q0 -8 4 -30 q9 -32 35.5 -47.5t55.5 -15.5q12 0 30 4q40 11 75 19t67.5 14t67.5 8t77 2q139 0 204 -66q30 -24 45 -60.5t19 -97.5q-74 13 -141.5 20t-131.5 7q-380 0 -457 -266q-17 -56 -17 -118zM310 369q0 44 8 72q6 16 17 41t39.5 47t80.5 37.5t140 15.5q53 0 125.5 -5t146.5 -16v-76 q0 -109 -15 -167t-53 -92q-65 -65 -204 -65q-231 0 -277 139q-8 25 -8 69zM382 1451q0 24 19 47q18 20 50 21q26 0 46 -17l212 -196q23 -18 23 -50q0 -28 -19 -47q-19 -21 -51 -21q-25 0 -46 16l-211 197q-24 18 -23 50z" />
<glyph unicode="&#xe1;" horiz-adv-x="1197" d="M116 369q0 61 17 118q78 266 457 266q63 0 131 -7t142 -20q-4 61 -19 98t-45 60q-65 65 -204 66q-42 0 -77 -2t-67.5 -8t-67.5 -14t-75 -19q-17 -4 -30 -4q-30 0 -56 15.5t-35 47.5q-4 21 -4 30q0 32 19 53.5t51 30.5q47 13 88 21t81 13.5t81 8t92 2.5q217 0 343 -117 q79 -72 101 -164.5t22 -219.5v-139q0 -127 -22 -219.5t-101 -164.5q-126 -116 -343 -115q-128 0 -213.5 30t-137.5 72.5t-77.5 87.5t-33.5 75q-17 57 -17 118zM310 369q0 -45 8 -69q45 -139 277 -139q139 0 204 65q38 34 53 92t15 167v76q-74 11 -146.5 16t-125.5 5 q-88 0 -140 -15.5t-80.5 -37.5t-39.5 -47t-17 -41q-8 -28 -8 -72zM477 1256q0 32 20 50l214 196q20 16 46 17q30 0 48 -21q19 -24 20 -47q0 -32 -22 -50l-213 -197q-20 -16 -46 -16q-30 0 -51 21q-16 21 -16 47z" />
<glyph unicode="&#xe2;" horiz-adv-x="1197" d="M116 369q0 -61 17 -118q8 -30 33.5 -75t77.5 -87.5t137.5 -72.5t213.5 -30q218 0 343 115q79 72 101 164.5t22 219.5v139q0 127 -22 219.5t-101 164.5q-126 117 -343 117q-50 0 -91.5 -2.5t-81.5 -8t-81 -13.5t-88 -21q-32 -8 -51 -30.5t-19 -53.5q0 -8 4 -30 q9 -32 35.5 -47.5t55.5 -15.5q12 0 30 4q40 11 75 19t67.5 14t67.5 8t77 2q139 0 204 -66q30 -24 45 -60.5t19 -97.5q-74 13 -141.5 20t-131.5 7q-380 0 -457 -266q-17 -56 -17 -118zM310 369q0 44 8 72q6 16 17 41t39.5 47t80.5 37.5t140 15.5q53 0 125.5 -5t146.5 -16v-76 q0 -109 -15 -167t-53 -92q-65 -65 -204 -65q-231 0 -277 139q-8 25 -8 69zM346 1262q0 28 19 46l152 149q36 37 89 37q50 0 90 -37l152 -149q16 -20 17 -46q0 -28 -17 -45q-19 -19 -47 -19q-25 0 -44 19l-151 150l-153 -150q-18 -18 -44 -19q-30 0 -44 19q-19 19 -19 45z " />
<glyph unicode="&#xe3;" horiz-adv-x="1197" d="M116 369q0 -61 17 -118q8 -30 33.5 -75t77.5 -87.5t137.5 -72.5t213.5 -30q218 0 343 115q79 72 101 164.5t22 219.5v139q0 127 -22 219.5t-101 164.5q-126 117 -343 117q-50 0 -91.5 -2.5t-81.5 -8t-81 -13.5t-88 -21q-32 -8 -51 -30.5t-19 -53.5q0 -8 4 -30 q9 -32 35.5 -47.5t55.5 -15.5q12 0 30 4q40 11 75 19t67.5 14t67.5 8t77 2q139 0 204 -66q30 -24 45 -60.5t19 -97.5q-74 13 -141.5 20t-131.5 7q-380 0 -457 -266q-17 -56 -17 -118zM287 1284q0 9 2 15.5t7 14.5q27 61 71 106.5t118 45.5q40 0 77 -20t66.5 -43.5t54 -43.5 t43.5 -20q28 0 41.5 18t24.5 40t25 41t44 19q28 0 45.5 -19t17.5 -43q0 -15 -6 -30q-30 -61 -73 -106.5t-117 -45.5q-42 0 -78 20.5t-65.5 43.5t-53.5 42.5t-44 19.5q-28 0 -41 -18.5t-25 -40.5t-26.5 -40t-44.5 -18q-26 0 -44.5 19t-18.5 43zM310 369q0 44 8 72q6 16 17 41 t39.5 47t80.5 37.5t140 15.5q53 0 125.5 -5t146.5 -16v-76q0 -109 -15 -167t-53 -92q-65 -65 -204 -65q-231 0 -277 139q-8 25 -8 69z" />
<glyph unicode="&#xe4;" horiz-adv-x="1197" d="M116 369q0 -61 17 -118q8 -30 33.5 -75t77.5 -87.5t137.5 -72.5t213.5 -30q218 0 343 115q79 72 101 164.5t22 219.5v139q0 127 -22 219.5t-101 164.5q-126 117 -343 117q-50 0 -91.5 -2.5t-81.5 -8t-81 -13.5t-88 -21q-32 -8 -51 -30.5t-19 -53.5q0 -8 4 -30 q9 -32 35.5 -47.5t55.5 -15.5q12 0 30 4q40 11 75 19t67.5 14t67.5 8t77 2q139 0 204 -66q30 -24 45 -60.5t19 -97.5q-74 13 -141.5 20t-131.5 7q-380 0 -457 -266q-17 -56 -17 -118zM310 369q0 44 8 72q6 16 17 41t39.5 47t80.5 37.5t140 15.5q53 0 125.5 -5t146.5 -16v-76 q0 -109 -15 -167t-53 -92q-65 -65 -204 -65q-231 0 -277 139q-8 25 -8 69zM327 1329q0 42 30.5 73t73.5 31q42 0 73.5 -31t31.5 -73q0 -45 -31.5 -75t-73.5 -30q-43 0 -73.5 30t-30.5 75zM673 1329q0 42 30.5 73t73.5 31q42 0 72.5 -31t30.5 -73q0 -45 -30.5 -75t-72.5 -30 q-43 0 -73.5 30t-30.5 75z" />
<glyph unicode="&#xe5;" horiz-adv-x="1197" d="M116 369q0 -61 17 -118q8 -30 33.5 -75t77.5 -87.5t137.5 -72.5t213.5 -30q218 0 343 115q79 72 101 164.5t22 219.5v139q0 127 -22 219.5t-101 164.5q-126 117 -343 117q-50 0 -91.5 -2.5t-81.5 -8t-81 -13.5t-88 -21q-32 -8 -51 -30.5t-19 -53.5q0 -8 4 -30 q9 -32 35.5 -47.5t55.5 -15.5q12 0 30 4q40 11 75 19t67.5 14t67.5 8t77 2q139 0 204 -66q30 -24 45 -60.5t19 -97.5q-74 13 -141.5 20t-131.5 7q-380 0 -457 -266q-17 -56 -17 -118zM310 369q0 44 8 72q6 16 17 41t39.5 47t80.5 37.5t140 15.5q53 0 125.5 -5t146.5 -16v-76 q0 -109 -15 -167t-53 -92q-65 -65 -204 -65q-231 0 -277 139q-8 25 -8 69zM413 1379q0 78 54 132.5t137 54.5q82 0 135.5 -54.5t53.5 -132.5t-53.5 -132.5t-135.5 -54.5q-83 0 -137 55t-54 132zM509 1379q0 -38 26 -65.5t69 -27.5q42 0 68 28t26 65q0 38 -26 66t-68 28 q-43 0 -69 -28t-26 -66z" />
<glyph unicode="&#xe6;" horiz-adv-x="1957" d="M116 369q0 61 17 118q78 266 457 266q63 0 131 -7t142 -20q-4 61 -19 98t-45 60q-65 65 -204 66q-42 0 -77 -2t-67.5 -8t-67.5 -14t-75 -19q-17 -4 -30 -4q-30 0 -56 15.5t-35 47.5q-4 21 -4 30q0 32 19 53.5t51 30.5q47 13 88 21t81 13.5t81 8t92 2.5q218 0 343 -117 q11 -10 19.5 -18.5t16.5 -19.5q59 74 153.5 114.5t220.5 40.5q196 0 319.5 -94.5t146.5 -263.5q6 -38 6 -69q0 -112 -56.5 -163.5t-162.5 -51.5h-536q0 -30 2 -60.5t6 -57.5q30 -205 275 -204q68 0 138 19.5t153 57.5q28 12 52 13q55 0 79 -50q10 -19 11 -42q0 -28 -15 -49 t-39 -32q-201 -92 -379 -92q-126 0 -220 39.5t-154 113.5q-8 -10 -16 -18.5t-20 -19.5q-126 -116 -343 -115q-128 0 -213.5 30t-137.5 72.5t-77.5 87.5t-33.5 75q-17 57 -17 118zM310 369q0 -45 8 -69q45 -139 277 -139q139 0 204 65q38 34 53 92t15 167v76 q-74 11 -146.5 16t-125.5 5q-88 0 -140 -15.5t-80.5 -37.5t-39.5 -47t-17 -41q-8 -28 -8 -72zM1065 658h517q24 0 34 8.5t10 38.5q0 8 -1 17.5t-3 22.5q-30 205 -274 205q-245 0 -275 -205q-4 -19 -5 -41t-3 -46z" />
<glyph unicode="&#xe7;" horiz-adv-x="1174" d="M137 555q0 53 1 106.5t9 105.5q15 93 56.5 161t103.5 111.5t141 64.5t168 21q97 0 194 -26t186 -68q53 -28 53 -77q0 -40 -25.5 -67.5t-65.5 -27.5q-26 0 -51 12q-72 30 -142.5 54.5t-148.5 24.5q-103 0 -161 -31t-85.5 -83.5t-32.5 -125.5t-5 -155t5 -155t32.5 -126 t85.5 -83t161 -30q78 0 148.5 24t142.5 53q26 12 51 13q40 0 65.5 -27.5t25.5 -64.5q0 -53 -53 -81q-70 -34 -147 -56t-153 -32l-25 -66q72 0 120 -33.5t48 -111.5q0 -43 -17 -72t-44 -50.5t-61.5 -31t-72.5 -9.5q-19 0 -49 1t-57 8.5t-47 22t-20 42.5q0 26 15.5 42.5 t40.5 16.5q26 0 54.5 -6.5t60.5 -6.5q23 0 47 7.5t24 37.5q0 34 -31.5 41t-57.5 7q-14 0 -32 -1t-34 2t-26.5 14t-10.5 33q0 21 16 56t24 55q-164 12 -276 99.5t-138 254.5q-8 52 -9 106t-1 107z" />
<glyph unicode="&#xe8;" horiz-adv-x="1224" d="M137 555q0 -65 2 -116t8 -97q24 -169 147.5 -262.5t321.5 -93.5q175 0 380 92q24 11 38.5 32t14.5 49q0 16 -11 42q-23 50 -80 50q-25 -1 -51 -13q-84 -38 -153.5 -57.5t-137.5 -19.5q-247 0 -276 204q-4 27 -5 57.5t-3 60.5h535q105 0 163.5 51.5t58.5 163.5q0 32 -6 69 q-24 169 -147.5 263.5t-319.5 94.5q-199 0 -322 -94.5t-147 -263.5q-6 -46 -8 -96.5t-2 -115.5zM334 658q0 49 6 87q30 205 276 205q245 0 274 -205q2 -13 2 -22.5v-17.5q0 -30 -10.5 -38.5t-31.5 -8.5h-516zM431 1451q0 24 18 47q19 20 51 21q23 0 46 -17l211 -196 q21 -18 22 -50q0 -30 -18 -47q-20 -21 -50 -21q-26 0 -47 16l-211 197q-23 18 -22 50z" />
<glyph unicode="&#xe9;" horiz-adv-x="1224" d="M137 555q0 65 2 115.5t8 96.5q24 169 147.5 263.5t321.5 94.5q196 0 319.5 -94.5t147.5 -263.5q6 -38 6 -69q0 -112 -58.5 -163.5t-163.5 -51.5h-535q2 -30 3 -60.5t5 -57.5q30 -205 276 -204q68 0 137.5 19.5t153.5 57.5q26 12 51 13q57 0 80 -50q11 -26 11 -42 q0 -28 -15 -49t-38 -32q-205 -92 -380 -92q-199 0 -322 93.5t-147 262.5q-6 46 -8 96.5t-2 116.5zM334 658h516q20 0 31 8.5t11 38.5v17.5t-2 22.5q-30 205 -274 205q-246 0 -276 -205q-6 -38 -6 -87zM459 1256q0 32 24 50l211 196q21 16 47 17q29 0 50 -21q17 -19 17 -47 q0 -32 -21 -50l-211 -197q-23 -16 -47 -16q-32 0 -50 21q-19 19 -20 47z" />
<glyph unicode="&#xea;" horiz-adv-x="1224" d="M137 555q0 -65 2 -116t8 -97q24 -169 147.5 -262.5t321.5 -93.5q175 0 380 92q24 11 38.5 32t14.5 49q0 16 -11 42q-23 50 -80 50q-25 -1 -51 -13q-84 -38 -153.5 -57.5t-137.5 -19.5q-247 0 -276 204q-4 27 -5 57.5t-3 60.5h535q105 0 163.5 51.5t58.5 163.5q0 32 -6 69 q-24 169 -147.5 263.5t-319.5 94.5q-199 0 -322 -94.5t-147 -263.5q-6 -46 -8 -96.5t-2 -115.5zM334 658q0 49 6 87q30 205 276 205q245 0 274 -205q2 -13 2 -22.5v-17.5q0 -30 -10.5 -38.5t-31.5 -8.5h-516zM369 1262q0 28 19 46l152 149q40 37 90 37q49 0 89 -37l152 -149 q19 -18 19 -46q0 -26 -19 -45q-18 -19 -44 -19t-44 19l-153 150h-2l-151 -150q-17 -18 -44 -19q-26 0 -45 19q-18 19 -19 45z" />
<glyph unicode="&#xeb;" horiz-adv-x="1224" d="M137 555q0 -65 2 -116t8 -97q24 -169 147.5 -262.5t321.5 -93.5q175 0 380 92q24 11 38.5 32t14.5 49q0 16 -11 42q-23 50 -80 50q-25 -1 -51 -13q-84 -38 -153.5 -57.5t-137.5 -19.5q-247 0 -276 204q-4 27 -5 57.5t-3 60.5h535q105 0 163.5 51.5t58.5 163.5q0 32 -6 69 q-24 169 -147.5 263.5t-319.5 94.5q-199 0 -322 -94.5t-147 -263.5q-6 -46 -8 -96.5t-2 -115.5zM334 658q0 49 6 87q30 205 276 205q245 0 274 -205q2 -13 2 -22.5v-17.5q0 -30 -10.5 -38.5t-31.5 -8.5h-516zM350 1329q0 42 30.5 73t74.5 31q42 0 73 -31t31 -73 q0 -45 -31 -75t-73 -30q-44 0 -74.5 30t-30.5 75zM696 1329q0 42 30.5 73t74.5 31q43 0 73.5 -31t30.5 -73q0 -45 -30.5 -75t-73.5 -30q-44 0 -74.5 30t-30.5 75z" />
<glyph unicode="&#xec;" horiz-adv-x="524" d="M10 1451q0 24 20 47q18 20 50 21q24 0 47 -17l211 -196q20 -18 20 -50q0 -26 -16 -47q-21 -21 -51 -21q-25 0 -46 16l-213 197q-21 20 -22 50zM165 72v966q0 36 28 58t69 22q42 0 69 -22.5t27 -57.5v-966q0 -36 -27 -58t-69 -22q-41 0 -69 22t-28 58z" />
<glyph unicode="&#xed;" horiz-adv-x="524" d="M165 72q0 -36 28 -58t69 -22q42 0 69 22t27 58v966q0 36 -27 58t-69 22q-41 0 -69 -22.5t-28 -57.5v-966zM165 1256q0 32 22 50l212 196q20 16 46 17q32 0 50 -21q19 -24 20 -47q0 -32 -24 -50l-211 -197q-20 -16 -46 -16q-32 0 -51 21q-18 19 -18 47z" />
<glyph unicode="&#xee;" horiz-adv-x="524" d="M2 1262q0 28 19 46l152 149q40 37 89 37q50 0 90 -37l152 -149q18 -18 19 -46q0 -26 -19 -45t-45 -19q-27 0 -46 19l-149 150h-2l-153 -150q-18 -18 -44 -19q-26 0 -44 19q-19 19 -19 45zM165 72v966q0 36 28 58t69 22q42 0 69 -22.5t27 -57.5v-966q0 -36 -27 -58 t-69 -22q-41 0 -69 22t-28 58z" />
<glyph unicode="&#xef;" horiz-adv-x="524" d="M-14 1329q0 42 30 73t73 31q44 0 74.5 -31t30.5 -73q0 -45 -30.5 -75t-74.5 -30q-43 0 -73 30t-30 75zM165 72v966q0 36 28 58t69 22q42 0 69 -22.5t27 -57.5v-966q0 -36 -27 -58t-69 -22q-41 0 -69 22t-28 58zM332 1329q0 42 30 73t73 31q42 0 73.5 -31t31.5 -73 q0 -45 -31.5 -75t-73.5 -30q-43 0 -73 30t-30 75z" />
<glyph unicode="&#xf0;" horiz-adv-x="1228" d="M137 555q0 51 1 106.5t9 105.5q24 169 137 263.5t294 94.5q131 0 232 -54q-61 101 -162 187l-165 -64q-6 -4 -21 -4q-18 0 -35.5 10.5t-23.5 29.5q-4 8 -4 24q0 42 40 58l84 32q-38 21 -82 44q-26 11 -37.5 32t-11.5 44q0 18 11 44q10 18 29 32t49 14q19 0 41 -7t58 -26 q42 -23 79 -46.5t71 -51.5l150 58q12 4 20 4q19 0 36.5 -11.5t23.5 -30.5q4 -6 4 -22q0 -18 -11 -35t-29 -23l-87 -34q220 -232 252 -578q2 -28 3 -77.5t1 -118.5q0 -65 -2 -116t-8 -97q-24 -169 -147.5 -262.5t-319.5 -93.5q-199 0 -322 93.5t-147 262.5q-8 50 -9 106 t-1 107zM332 555q0 -56 2 -104t6 -86q30 -205 276 -204q244 -1 274 204q6 42 7 93t1 97q0 47 -1 97t-7 93q-30 205 -274 205q-247 0 -276 -205q-4 -38 -6 -85.5t-2 -104.5z" />
<glyph unicode="&#xf1;" horiz-adv-x="1252" d="M159 72v552q0 127 23 219.5t98 164.5q129 117 346 117q218 0 344 -117q79 -72 102 -164.5t23 -219.5v-552q0 -36 -28.5 -58t-68.5 -22q-42 0 -70 22t-28 58v552q0 109 -15.5 167.5t-51.5 92.5q-68 65 -207 66q-139 0 -206 -66q-38 -34 -53 -92t-15 -168v-552 q0 -36 -28 -58t-69 -22q-40 0 -68 22t-28 58zM308 1284q0 13 6 30q30 61 73.5 106.5t116.5 45.5q42 0 78 -20t65.5 -43.5t55 -43.5t44.5 -20q25 0 38.5 18t25.5 40t26.5 41t44.5 19q25 0 44.5 -19t19.5 -43q0 -15 -8 -30q-30 -61 -72.5 -106.5t-116.5 -45.5 q-42 0 -78.5 20.5t-66.5 43.5t-54.5 42.5t-42.5 19.5q-26 0 -40 -18.5t-25 -40.5t-27 -40t-44 -18t-45.5 19t-17.5 43z" />
<glyph unicode="&#xf2;" horiz-adv-x="1228" d="M137 555q0 65 2 115.5t8 96.5q24 169 147.5 263.5t321.5 94.5q196 0 319.5 -94.5t147.5 -263.5q8 -50 9 -105.5t1 -106.5q0 -50 -1 -106.5t-9 -106.5q-24 -169 -147.5 -262.5t-319.5 -93.5q-199 0 -322 93.5t-147 262.5q-6 46 -8 96.5t-2 116.5zM332 555q0 -46 1 -97 t7 -93q30 -205 276 -204q245 0 274 204q4 38 6 85t2 105q0 57 -2 104.5t-6 85.5q-29 205 -274 205q-247 0 -276 -205q-6 -43 -7 -93t-1 -97zM415 1451q0 24 18 47q20 20 50 21q28 0 46 -19l214 -194q20 -18 20 -50q0 -28 -18 -47q-19 -21 -49 -21t-46 16l-213 197 q-21 18 -22 50z" />
<glyph unicode="&#xf3;" horiz-adv-x="1228" d="M137 555q0 -65 2 -116t8 -97q24 -169 147 -262.5t322 -93.5q196 0 319.5 93.5t147.5 262.5q8 50 9 106t1 107t-1 106.5t-9 105.5q-24 169 -147.5 263.5t-319.5 94.5q-199 0 -322 -94.5t-147 -263.5q-6 -46 -8 -96.5t-2 -115.5zM332 555q0 47 1 97t7 93q29 205 276 205 q245 0 274 -205q4 -38 6 -85.5t2 -104.5q0 -56 -2 -104t-6 -86q-30 -205 -274 -204q-247 0 -276 204q-6 42 -7 93t-1 97zM467 1256q0 29 20 50l213 194q19 18 47 19q30 0 50 -21q17 -24 18 -47q0 -32 -22 -50l-211 -197q-19 -16 -48 -16q-30 0 -49 21q-18 19 -18 47z" />
<glyph unicode="&#xf4;" horiz-adv-x="1228" d="M137 555q0 65 2 115.5t8 96.5q24 169 147.5 263.5t321.5 94.5q196 0 319.5 -94.5t147.5 -263.5q8 -50 9 -105.5t1 -106.5q0 -50 -1 -106.5t-9 -106.5q-24 -169 -147.5 -262.5t-319.5 -93.5q-199 0 -322 93.5t-147 262.5q-6 46 -8 96.5t-2 116.5zM332 555q0 -46 1 -97 t7 -93q30 -205 276 -204q245 0 274 204q4 38 6 85t2 105q0 57 -2 104.5t-6 85.5q-29 205 -274 205q-247 0 -276 -205q-6 -43 -7 -93t-1 -97zM354 1262q0 28 19 44l152 151q40 37 91 37q48 0 89 -37l151 -151q18 -16 20 -44q0 -26 -20 -45q-19 -19 -44 -19q-26 0 -45 19 l-151 150h-2l-152 -150q-16 -18 -44 -19q-26 0 -45 19t-19 45z" />
<glyph unicode="&#xf5;" horiz-adv-x="1228" d="M137 555q0 65 2 115.5t8 96.5q24 169 147.5 263.5t321.5 94.5q196 0 319.5 -94.5t147.5 -263.5q8 -50 9 -105.5t1 -106.5q0 -50 -1 -106.5t-9 -106.5q-24 -169 -147.5 -262.5t-319.5 -93.5q-199 0 -322 93.5t-147 262.5q-6 46 -8 96.5t-2 116.5zM298 1284q0 15 6 28 q30 61 73 106.5t116 45.5q43 0 79 -19t65 -43.5t54.5 -43.5t44.5 -19q26 0 39.5 18t24 40t25 41t44.5 19q28 0 45.5 -19t17.5 -43q0 -17 -6 -30q-30 -61 -72.5 -106.5t-117.5 -45.5q-42 0 -78 18.5t-65.5 43.5t-54.5 43.5t-45 18.5q-25 0 -38.5 -17.5t-24 -39.5t-26.5 -40 t-44 -18q-27 0 -44.5 18t-17.5 44zM332 555q0 -46 1 -97t7 -93q30 -205 276 -204q245 0 274 204q4 38 6 85t2 105q0 57 -2 104.5t-6 85.5q-29 205 -274 205q-247 0 -276 -205q-6 -43 -7 -93t-1 -97z" />
<glyph unicode="&#xf6;" horiz-adv-x="1228" d="M137 555q0 65 2 115.5t8 96.5q24 169 147.5 263.5t321.5 94.5q196 0 319.5 -94.5t147.5 -263.5q8 -50 9 -105.5t1 -106.5q0 -50 -1 -106.5t-9 -106.5q-24 -169 -147.5 -262.5t-319.5 -93.5q-199 0 -322 93.5t-147 262.5q-6 46 -8 96.5t-2 116.5zM332 555q0 -46 1 -97 t7 -93q30 -205 276 -204q245 0 274 204q4 38 6 85t2 105q0 57 -2 104.5t-6 85.5q-29 205 -274 205q-247 0 -276 -205q-6 -43 -7 -93t-1 -97zM338 1327q0 44 30.5 75t74.5 31q42 0 72.5 -31t30.5 -75q0 -43 -30.5 -73t-72.5 -30q-44 0 -74.5 30t-30.5 73zM684 1327 q0 44 30.5 75t72.5 31q44 0 74.5 -31t30.5 -75q0 -43 -30.5 -73t-74.5 -30q-42 0 -72.5 30t-30.5 73z" />
<glyph unicode="&#xf7;" horiz-adv-x="1222" d="M63 555q0 36 24.5 60.5t63.5 24.5h920q40 0 64.5 -25t24.5 -60q0 -36 -24.5 -60t-64.5 -24h-920q-40 0 -64 24t-24 60zM502 192q0 48 31.5 81t78.5 33q46 0 77.5 -33t31.5 -81q0 -47 -31.5 -79.5t-77.5 -32.5q-47 0 -78.5 32.5t-31.5 79.5zM502 918q0 46 31.5 78.5 t78.5 32.5q46 0 77.5 -32.5t31.5 -78.5q0 -49 -31.5 -82t-77.5 -33q-47 0 -78.5 33t-31.5 82z" />
<glyph unicode="&#xf8;" horiz-adv-x="1228" d="M137 555q0 51 1 106.5t9 105.5q24 169 147.5 263.5t321.5 94.5q154 0 266 -62l60 93q21 27 54 27q16 0 33 -10q30 -18 30 -53q0 -19 -10 -35l-68 -98q83 -85 102 -220q6 -46 8 -96.5t2 -115.5t-2 -116t-8 -97q-24 -169 -147.5 -262.5t-319.5 -93.5q-157 0 -268 60 l-61 -92q-20 -28 -53 -28q-17 0 -33 11q-30 19 -30 53q0 18 10 36l68 97q-82 84 -102 219q-8 50 -9 106t-1 107zM332 555q0 -56 2 -104t6 -86q6 -47 20 -74l421 623q-68 36 -165 36q-247 0 -276 -205q-4 -38 -6 -85.5t-2 -104.5zM449 196q68 -36 167 -35q244 -1 274 204 q6 42 7 93t1 97q0 47 -1 97t-7 93q-6 46 -21 74z" />
<glyph unicode="&#xf9;" horiz-adv-x="1252" d="M159 485v553q0 36 28 58t68 22q41 0 69 -22.5t28 -57.5v-553q0 -109 15 -167t53 -92q72 -65 206 -65q139 0 207 65q36 34 51.5 92t15.5 167v553q0 36 28 58t70 22q40 0 68.5 -22.5t28.5 -57.5v-553q0 -127 -23 -219.5t-102 -164.5q-126 -115 -344 -115q-217 0 -346 115 q-76 72 -98.5 164.5t-22.5 219.5zM394 1451q0 24 19 47q19 20 52 21q23 0 46 -19l210 -194q24 -18 24 -50q0 -28 -19 -47q-19 -21 -51 -21q-30 0 -47 16l-210 197q-24 18 -24 50z" />
<glyph unicode="&#xfa;" horiz-adv-x="1252" d="M159 485q0 -127 23 -219.5t98 -164.5q129 -115 346 -115q218 0 344 115q79 72 102 164.5t23 219.5v553q0 36 -28.5 58t-68.5 22q-42 0 -70 -22.5t-28 -57.5v-553q0 -109 -15.5 -167t-51.5 -92q-68 -65 -207 -65q-135 0 -206 65q-38 34 -53 92t-15 167v553q0 36 -28 58 t-69 22q-40 0 -68 -22.5t-28 -57.5v-553zM509 1256q0 32 22 50l212 194q18 18 46 19q32 0 50 -21q19 -24 20 -47q0 -32 -24 -50l-211 -197q-16 -16 -46 -16q-32 0 -51 21q-18 19 -18 47z" />
<glyph unicode="&#xfb;" horiz-adv-x="1252" d="M159 485v553q0 36 28 58t68 22q41 0 69 -22.5t28 -57.5v-553q0 -109 15 -167t53 -92q72 -65 206 -65q139 0 207 65q36 34 51.5 92t15.5 167v553q0 36 28 58t70 22q40 0 68.5 -22.5t28.5 -57.5v-553q0 -127 -23 -219.5t-102 -164.5q-126 -115 -344 -115q-217 0 -346 115 q-76 72 -98.5 164.5t-22.5 219.5zM367 1262q0 28 19 44l150 151q40 37 90 37q53 0 89 -37l152 -151q19 -16 19 -44q0 -26 -19 -45q-16 -19 -44 -19q-26 0 -44 19l-153 150l-151 -150q-19 -18 -44 -19q-28 0 -47 19q-16 21 -17 45z" />
<glyph unicode="&#xfc;" horiz-adv-x="1252" d="M159 485v553q0 36 28 58t68 22q41 0 69 -22.5t28 -57.5v-553q0 -109 15 -167t53 -92q72 -65 206 -65q139 0 207 65q36 34 51.5 92t15.5 167v553q0 36 28 58t70 22q40 0 68.5 -22.5t28.5 -57.5v-553q0 -127 -23 -219.5t-102 -164.5q-126 -115 -344 -115q-217 0 -346 115 q-76 72 -98.5 164.5t-22.5 219.5zM350 1327q0 44 30.5 75t72.5 31t73 -31t31 -75q0 -43 -31 -73t-73 -30t-72.5 30t-30.5 73zM696 1327q0 44 30.5 75t72.5 31q43 0 73.5 -31t30.5 -75q0 -43 -30.5 -73t-73.5 -30q-42 0 -72.5 30t-30.5 73z" />
<glyph unicode="&#xfd;" horiz-adv-x="1109" d="M63 1034q0 34 25.5 59t72.5 25q32 0 58 -15.5t39 -45.5l301 -711q15 -32 18 -40t7 -8t5 6t10 23l3 2l248 715q23 74 106 74q38 0 64 -23.5t26 -58.5q0 -18 -6 -34l-338 -970q-27 -78 -61.5 -152t-86.5 -132t-127 -94t-182 -38h-5h-2q-42 0 -67.5 23t-25.5 63v4v3 q0 36 22.5 58t70.5 26q48 2 85 14t70 43.5t62.5 87.5t61.5 149l6 16q-36 16 -72 50t-63 96v2l-316 745q-8 16 -9 38zM409 1256q0 29 22 50l213 194q18 18 46 19q30 0 51 -21q16 -24 16 -47q0 -32 -21 -50l-211 -197q-18 -16 -46 -16q-32 0 -51 21q-18 19 -19 47z" />
<glyph unicode="&#xfe;" horiz-adv-x="1271" d="M179 -318v1727q0 36 28.5 57t68.5 21t68.5 -21t28.5 -57v-346q74 28 149 45t144 17q192 0 313.5 -94.5t145.5 -263.5q6 -46 8 -96.5t2 -115.5t-2 -116t-8 -97q-24 -169 -145 -262.5t-314 -93.5q-70 0 -144.5 16.5t-148.5 43.5v-364q0 -36 -28.5 -58.5t-68.5 -22.5 t-68.5 22.5t-28.5 58.5zM373 215q72 -23 152.5 -38.5t132.5 -15.5q245 0 274 204q6 42 7 93t1 97q0 47 -1 97t-7 93q-30 205 -274 205q-52 0 -132.5 -16t-152.5 -40v-679z" />
<glyph unicode="&#xff;" horiz-adv-x="1109" d="M63 1034q0 -20 9 -38l316 -745v-2q28 -61 63.5 -94.5t71.5 -51.5l-6 -16q-32 -93 -61.5 -149t-62.5 -87.5t-69.5 -43.5t-85.5 -14q-48 -4 -70.5 -26t-22.5 -58v-3v-4q0 -40 25.5 -63t67.5 -23h2h5q107 2 182 38t127 94t86.5 132t61.5 152l338 970q6 15 6 34q0 36 -26 59 t-64 23q-83 0 -106 -74l-248 -715l-3 -2q-8 -17 -9.5 -23t-5.5 -6t-7 8t-18 40l-301 711q-13 30 -39.5 45.5t-57.5 15.5q-47 0 -72.5 -25.5t-25.5 -58.5zM272 1327q0 44 31 75t75 31q42 0 72.5 -31t30.5 -75q0 -43 -30.5 -73t-72.5 -30q-44 0 -75 30t-31 73zM618 1327 q0 44 30.5 75t74.5 31q42 0 73 -31t31 -75q0 -43 -31 -73t-73 -30q-44 0 -74.5 30t-30.5 73z" />
<glyph unicode="&#x152;" horiz-adv-x="2204" d="M147 741q0 86 5 169.5t13 154.5q23 205 166.5 318t379.5 113q139 0 239.5 -41.5t164.5 -117.5q30 57 86.5 93t131.5 36h627q42 0 66.5 -26.5t24.5 -64.5t-24.5 -64.5t-66.5 -26.5h-621q-30 0 -46.5 -18t-16.5 -44v-380h635q42 0 66.5 -26.5t24.5 -64.5t-24.5 -64.5 t-66.5 -26.5h-635v-493h701q42 0 66 -26.5t24 -64.5t-24 -64t-66 -26h-715q-68 0 -112.5 37.5t-56.5 94.5q-133 -132 -382 -132q-236 0 -380 112.5t-166 316.5q-8 72 -13 155.5t-5 170.5zM346 741q0 -83 4 -161t10 -145q32 -268 351 -268q318 0 350 268q6 68 10 145.5 t4 160.5q0 82 -4 159.5t-10 145.5q-32 268 -350 268q-319 0 -351 -268q-6 -68 -10 -145.5t-4 -159.5z" />
<glyph unicode="&#x153;" horiz-adv-x="1988" d="M137 555q0 51 1 106.5t9 105.5q24 169 147.5 263.5t321.5 94.5q131 0 226.5 -42.5t153.5 -122.5q59 80 154.5 122.5t228.5 42.5q196 0 319.5 -94.5t147.5 -263.5q6 -38 6 -69q0 -112 -57.5 -163.5t-164.5 -51.5h-535q2 -30 3 -60.5t5 -57.5q30 -205 276 -204 q68 0 137.5 19.5t154.5 57.5q25 12 50 13q57 0 80 -50q11 -26 11 -42q0 -28 -14.5 -49t-38.5 -32q-205 -92 -380 -92q-133 0 -228.5 42t-154.5 121q-57 -80 -153 -121.5t-227 -41.5q-199 0 -322 93.5t-147 262.5q-8 50 -9 106t-1 107zM332 555q0 -56 2 -104t6 -86 q30 -205 276 -204q244 -1 274 204q6 42 7 93t1 97q0 47 -1 97t-7 93q-30 205 -274 205q-247 0 -276 -205q-4 -38 -6 -85.5t-2 -104.5zM1097 658h517q21 0 31.5 8.5t10.5 38.5v17.5t-2 22.5q-30 205 -275 205q-246 0 -276 -205q-6 -38 -6 -87z" />
<glyph unicode="&#x178;" horiz-adv-x="1298" d="M32 1399q0 -28 14 -49l348 -511q34 -48 72 -84t85 -55v-626q0 -36 28.5 -59t70.5 -23t70.5 23t28.5 59v626q46 19 84 55t72 84l349 511q14 21 14 49q0 36 -26.5 63t-72.5 27q-36 0 -58 -14.5t-38 -35.5l-341 -501q-36 -50 -52 -62.5t-30 -12.5t-30 12.5t-52 62.5 l-340 501q-15 21 -38 35.5t-59 14.5q-47 0 -73 -27t-26 -63zM373 1701q0 42 31 72.5t73 30.5t72.5 -30.5t30.5 -72.5q0 -45 -30.5 -76t-72.5 -31t-73 31t-31 76zM719 1701q0 42 31 72.5t73 30.5t72.5 -30.5t30.5 -72.5q0 -45 -30.5 -76t-72.5 -31t-73 31t-31 76z" />
<glyph unicode="&#x2c6;" horiz-adv-x="695" d="M89 1262q0 28 18 46l153 149q36 37 88 37q53 0 89 -37l151 -149q19 -18 20 -46q0 -24 -18 -45q-18 -19 -46 -19q-26 0 -44 19l-152 150l-152 -150q-19 -18 -45 -19q-27 0 -46 19q-16 21 -16 45z" />
<glyph unicode="&#x2dc;" horiz-adv-x="695" d="M30 1284q0 13 6 30q30 61 72.5 106.5t117.5 45.5q42 0 78 -20t66.5 -43.5t54.5 -43.5t44 -20q25 0 38.5 18t25 40t26.5 41t45 19q25 0 43.5 -19t18.5 -43q0 -17 -6 -30q-30 -61 -72.5 -106.5t-116.5 -45.5q-43 0 -79 20.5t-66 43.5t-54.5 42.5t-43.5 19.5 q-26 0 -39.5 -18.5t-25.5 -40.5t-27 -40t-43 -18q-26 0 -44.5 19t-18.5 43z" />
<glyph unicode="&#x2000;" horiz-adv-x="968" />
<glyph unicode="&#x2001;" horiz-adv-x="1936" />
<glyph unicode="&#x2002;" horiz-adv-x="968" />
<glyph unicode="&#x2003;" horiz-adv-x="1936" />
<glyph unicode="&#x2004;" horiz-adv-x="645" />
<glyph unicode="&#x2005;" horiz-adv-x="484" />
<glyph unicode="&#x2006;" horiz-adv-x="322" />
<glyph unicode="&#x2007;" horiz-adv-x="322" />
<glyph unicode="&#x2008;" horiz-adv-x="242" />
<glyph unicode="&#x2009;" horiz-adv-x="387" />
<glyph unicode="&#x200a;" horiz-adv-x="107" />
<glyph unicode="&#x2010;" horiz-adv-x="793" d="M42 555q0 30 22.5 51.5t51.5 21.5h540q30 0 52 -22t22 -51q0 -30 -22 -52t-52 -22h-540q-29 0 -51.5 22t-22.5 52z" />
<glyph unicode="&#x2011;" horiz-adv-x="793" d="M42 555q0 30 22.5 51.5t51.5 21.5h540q30 0 52 -22t22 -51q0 -30 -22 -52t-52 -22h-540q-29 0 -51.5 22t-22.5 52z" />
<glyph unicode="&#x2012;" horiz-adv-x="793" d="M42 555q0 30 22.5 51.5t51.5 21.5h540q30 0 52 -22t22 -51q0 -30 -22 -52t-52 -22h-540q-29 0 -51.5 22t-22.5 52z" />
<glyph unicode="&#x2013;" horiz-adv-x="1224" d="M42 555q0 30 22.5 51.5t51.5 21.5h973q30 0 51.5 -22t21.5 -51q0 -30 -21.5 -52t-51.5 -22h-973q-29 0 -51.5 22t-22.5 52z" />
<glyph unicode="&#x2014;" horiz-adv-x="2228" d="M42 555q0 30 22.5 51.5t51.5 21.5h1977q32 0 52.5 -22t20.5 -51q0 -30 -20.5 -52t-52.5 -22h-1977q-29 0 -51.5 22t-22.5 52z" />
<glyph unicode="&#x2018;" horiz-adv-x="372" d="M84 1118v19q0 91 27.5 186.5t84.5 193.5q20 38 66 37q18 0 34 -8q36 -16 36 -59q0 -20 -10 -38q-48 -95 -69 -169t-21 -141v-30l2 -6v-2q0 -30 -20 -50t-49 -20h-6h-2q-28 -2 -48 18t-22 50q-3 10 -3 19z" />
<glyph unicode="&#x2019;" horiz-adv-x="372" d="M42 1099q0 16 11 38q48 95 69 167.5t21 140.5q0 8 -1 15.5t-1 16.5v4v4q0 30 20 48.5t50 20.5h4h2q30 0 50 -18.5t22 -50.5v-38q0 -88 -27.5 -184t-82.5 -194q-23 -38 -67 -38q-14 0 -34 7q-36 19 -36 61z" />
<glyph unicode="&#x201a;" horiz-adv-x="340" d="M10 -190q0 15 11 41q48 92 69.5 166t21.5 142q0 8 -1.5 14t-1.5 14v7v2q0 30 20 50t50 22h4h2q30 0 50 -20t23 -49v-38q0 -186 -111 -378q-23 -41 -67 -41q-16 0 -34 9q-36 16 -36 59z" />
<glyph unicode="&#x201c;" horiz-adv-x="622" d="M84 1118v19q0 91 27.5 186.5t84.5 193.5q20 38 66 37q18 0 34 -8q36 -16 36 -59q0 -20 -10 -38q-48 -95 -69 -169t-21 -141v-30l2 -6v-2q0 -30 -20 -50t-49 -20h-6h-2q-28 -2 -48 18t-22 50q-3 10 -3 19zM334 1099v38q0 91 27 186.5t82 193.5q24 38 68 37q16 0 33 -8 q36 -16 36 -59q0 -23 -10 -38q-49 -95 -69 -169t-20 -141v-30v-6v-2q0 -30 -20 -50t-50 -20h-4h-2q-30 -2 -48.5 18t-22.5 50z" />
<glyph unicode="&#x201d;" horiz-adv-x="622" d="M42 1099q0 16 11 38q48 95 69 167.5t21 140.5q0 8 -1 15.5t-1 16.5v4q-2 32 19 51.5t51 21.5h4h2q30 0 50 -18.5t22 -50.5v-38q0 -88 -27.5 -184t-82.5 -194q-23 -38 -67 -38q-14 0 -34 7q-36 19 -36 61zM291 1099q0 21 9 38q48 95 69 167.5t21 140.5v32v4q-2 32 18 51.5 t49 21.5h8h2q29 0 48 -18.5t23 -50.5v-38q0 -88 -27.5 -184t-84.5 -194q-20 -38 -66 -38q-18 0 -33 7q-37 19 -36 61z" />
<glyph unicode="&#x201e;" horiz-adv-x="590" d="M10 -190q0 15 11 41q48 92 69.5 166t21.5 142q0 8 -1.5 14t-1.5 14v7q-2 32 19 52t51 22h4h2q30 0 50 -20t23 -49v-38q0 -186 -111 -378q-23 -41 -67 -41q-16 0 -34 9q-36 16 -36 59zM260 -190q0 21 8 41q48 92 69 166t21 142v28v7q-2 32 18.5 52t49.5 22h7h2 q30 0 48.5 -20t23.5 -49v-38q0 -91 -28 -186.5t-85 -191.5q-20 -41 -65 -41q-19 0 -33 9q-36 16 -36 59z" />
<glyph unicode="&#x2022;" horiz-adv-x="479" d="M84 559q0 65 45.5 110.5t110.5 45.5t111 -45.5t46 -110.5t-45.5 -110.5t-111.5 -45.5q-65 0 -110.5 45t-45.5 111z" />
<glyph unicode="&#x2026;" horiz-adv-x="1357" d="M42 99q0 54 30.5 83t76.5 29q47 0 76.5 -29t29.5 -83q0 -55 -29.5 -84t-76.5 -29q-46 0 -76.5 29t-30.5 84zM551 99q0 54 30.5 83t76.5 29q47 0 77 -29t30 -83q0 -55 -30 -84t-77 -29q-46 0 -76.5 29t-30.5 84zM1059 99q0 54 30.5 83t77.5 29q46 0 76.5 -29t30.5 -83 q0 -55 -30.5 -84t-76.5 -29t-77 29t-31 84z" />
<glyph unicode="&#x202f;" horiz-adv-x="387" />
<glyph unicode="&#x2039;" horiz-adv-x="529" d="M63 555q0 24 7.5 45.5t18.5 41.5l240 379q23 36 63 36q19 0 39 -13q16 -10 26 -27t10 -34q0 -21 -14 -41l-238 -379q-4 -4 -4 -8t4 -9l238 -379q13 -19 14 -40q0 -17 -10 -34t-26 -28q-19 -12 -39 -12q-40 0 -63 36l-240 380q-11 18 -18.5 40t-7.5 46z" />
<glyph unicode="&#x203a;" horiz-adv-x="529" d="M63 127q0 18 11 40l240 379q2 2 2 9q0 6 -2 8l-240 379q-10 21 -11 41q0 40 34 61q18 13 40 13q40 0 64 -36l238 -379q28 -43 28 -87q0 -46 -28 -86l-238 -380q-24 -36 -64 -36q-21 0 -40 12q-34 20 -34 62z" />
<glyph unicode="&#x205f;" horiz-adv-x="484" />
<glyph unicode="&#x20ac;" horiz-adv-x="1330" d="M63 614q0 28 18 45.5t46 17.5h116v64v62h-116q-28 0 -46 19.5t-18 44.5q0 28 18 45.5t46 17.5h120q4 36 6 71t7 66q23 203 166.5 316t376.5 113q85 0 172.5 -15t149.5 -32q30 -8 49.5 -28t19.5 -54q0 -6 -1 -13.5t-3 -18.5q-9 -30 -30 -47.5t-57 -17.5q-14 0 -34 6 q-48 13 -123 27.5t-143 14.5q-98 0 -163.5 -25t-106 -64t-58.5 -86.5t-24 -93.5q-4 -28 -5 -57.5t-5 -61.5h521q28 0 45.5 -18t17.5 -45q0 -25 -17.5 -44.5t-45.5 -19.5h-525v-62v-64h461q28 0 46 -17.5t18 -45.5t-18 -45.5t-46 -17.5h-457q4 -32 5 -62t5 -56 q6 -47 24 -95.5t58.5 -87.5t106 -63t163.5 -24q68 0 143 14t123 26q19 6 36 6q65 0 83 -64q4 -6 4 -13v-14q0 -29 -16 -52.5t-51 -33.5q-61 -17 -149 -31.5t-173 -14.5q-233 0 -377 112.5t-166 314.5q-5 32 -7 67t-6 71h-120q-28 0 -46 17.5t-18 45.5z" />
<glyph unicode="&#x2122;" horiz-adv-x="1674" d="M63 1409q0 30 20 51t52 21h513q34 0 53.5 -21t19.5 -51t-19.5 -50t-53.5 -20h-177v-556q0 -30 -22.5 -51t-56.5 -21t-57 21t-23 51v556h-177q-32 0 -52 20t-20 50zM779 779v573q0 61 36.5 98t98.5 37q52 0 88 -26t49 -66l105 -357h13l107 357q10 40 46.5 66t88.5 26 q61 0 99 -37t38 -98v-573q0 -30 -23 -49t-57 -19q-32 0 -55 19t-23 49v151l21 390h-14l-108 -350q-13 -40 -43.5 -66t-83.5 -26t-83 26t-43 66l-108 350h-14l22 -390v-151q0 -30 -23 -49t-57 -19t-55.5 19t-21.5 49z" />
<glyph unicode="&#x25fc;" horiz-adv-x="1117" d="M0 0v1118h1118v-1118h-1118z" />
</font>
</defs>
</svg>
